<svg xmlns="http://www.w3.org/2000/svg" enable-background="new 0 0 80 80" viewBox="0 0 80 80"><path d="M19.0895996,46.0120239l1.5373535,15.7565308C20.9443359,65.0361328,23.6611328,67.5,26.9443359,67.5h26.1113281 c3.2832031,0,6-2.4638672,6.3173828-5.730957l1.5373535-15.757019C69.4127197,40.1526489,75,30.3528442,75,19.269043 c0-1.1044922-0.8955078-2-2-2h-5V14.5c0-1.1044922-0.8955078-2-2-2H14c-1.1044922,0-2,0.8955078-2,2v2.769043H7 c-1.1044922,0-2,0.8955078-2,2C5,30.3528442,10.5872803,40.1526489,19.0895996,46.0120239z M55.3925781,61.3808594 C55.2744141,62.5888672,54.2705078,63.5,53.0556641,63.5H26.9443359c-1.2148438,0-2.21875-0.9111328-2.3369141-2.1196289 l-1.2564697-12.8809814c4.2694092,2.069397,9.0567627,3.2315674,14.1109619,3.2315674h5.0761719 c5.0541992,0,9.8415527-1.1622314,14.1109619-3.2316284L55.3925781,61.3808594z M57.1174316,43.697876 c-4.2675781,2.5566406-9.2530518,4.0330811-14.5793457,4.0330811h-5.0761719 c-5.3262939,0-10.3117676-1.4764404-14.5793457-4.0330811L21.2050781,26.5h37.5898438L57.1174316,43.697876z M68,24.5v-3.230957 h2.9306641c-0.5327148,7.6349487-4.0952148,14.444397-9.4838867,19.2457275L62.8140869,26.5H66 C67.1044922,26.5,68,25.6044922,68,24.5z M16,16.5h48v6h-3H19h-3V16.5z M12,21.269043V24.5c0,1.1044922,0.8955078,2,2,2h3.1859131 l1.3673096,14.0148315C13.1645508,35.713562,9.6020508,28.9040527,9.0693359,21.269043H12z"/></svg>