<svg xmlns="http://www.w3.org/2000/svg" viewBox="0 0 400 400" width="400" height="400">
	<defs>
		<g id="img1" transform="translate(0.000000,99.000000) scale(0.100000,-0.100000)" fill="#000000" stroke="none">
			<path d="M347 648 c-50 -48 -89 -131 -94 -203 -6 -74 24 -138 77 -166 51 -28 152 -26 210 4 172 86 82 397 -114 397 -37 0 -51 -6 -79 -32z m149 -133 c8 -11 13 -14 9 -7 -13 26 4 10 24 -22 31 -49 20 -66 -43 -68 -80 -2 -110 3 -128 19 -22 20 -22 35 -3 73 14 27 18 29 70 27 40 -2 59 -8 71 -22z"/>
		</g>
		<g id="img2" transform="translate(0.000000,99.000000) scale(0.100000,-0.100000)" fill="#000000" stroke="none">
			<path d="M347 648 c-50 -48 -89 -131 -94 -203 -6 -74 24 -138 77 -166 51 -28 152 -26 210 4 172 86 82 397 -114 397 -37 0 -51 -6 -79 -32z m149 -133 c8 -11 13 -14 9 -7 -13 26 4 10 24 -22 31 -49 20 -66 -43 -68 -80 -2 -110 3 -128 19 -22 20 -22 35 -3 73 14 27 18 29 70 27 40 -2 59 -8 71 -22z"/>
		</g>
		<g id="img3" transform="translate(0.000000,103.000000) scale(0.100000,-0.100000)" fill="#000000" stroke="none">
			<path d="M420 580 c-124 -77 -235 -152 -248 -166 -39 -45 -20 -134 26 -117 25 9 380 212 428 245 44 29 74 90 74 150 0 53 -40 37 -280 -112z"/>
		</g>
		<g id="img4" transform="translate(0.000000,92.000000) scale(0.100000,-0.100000)" fill="#000000" stroke="none">
			<path d="M742 748 c-61 -40 -160 -102 -219 -138 -92 -56 -111 -72 -130 -110 -13 -24 -23 -57 -23 -72 0 -45 36 -36 172 43 68 39 162 93 209 120 104 60 134 90 150 150 27 102 -10 103 -159 7z"/>
			<path d="M650 457 c-118 -79 -222 -152 -230 -161 -8 -11 -14 -40 -15 -70 0 -44 3 -51 20 -54 12 -1 108 51 230 126 204 125 211 129 238 182 15 29 27 69 27 87 0 60 -35 46 -270 -110z"/>
		</g>		
		<g id="img5" transform="translate(0.000000,123.000000) scale(0.100000,-0.100000)" fill="#000000" stroke="none">
			<path d="M560 881 c-145 -65 -199 -94 -209 -112 -18 -33 -8 -79 18 -79 36 0 413 136 422 153 5 9 11 40 12 69 2 50 1 53 -23 55 -14 1 -113 -38 -220 -86z"/>
			<path d="M764 652 c-16 -10 -30 -42 -38 -84 -8 -45 -29 -68 -62 -68 -26 0 -32 14 -36 85 -3 37 -5 40 -35 43 -30 3 -32 0 -52 -53 -42 -112 -58 -135 -97 -135 -29 0 -35 21 -28 96 7 63 6 64 -21 74 -38 15 -57 -5 -81 -83 -26 -86 -26 -187 2 -224 48 -64 137 -67 204 -7 37 34 40 35 62 20 13 -9 43 -16 69 -16 72 0 119 53 153 170 23 82 24 160 1 176 -21 16 -26 17 -41 6z"/>
		</g>		
		<g id="img6" transform="translate(0.000000,123.000000) scale(0.100000,-0.100000)" fill="#000000" stroke="none">
			<path d="M575 1061 c-72 -30 -369 -163 -385 -173 -40 -25 -34 -98 8 -98 37 0 388 143 410 167 27 29 31 97 6 107 -9 3 -16 6 -17 5 -1 0 -11 -4 -22 -8z"/>
			<path d="M390 814 c-107 -41 -199 -79 -206 -85 -14 -11 -24 -57 -17 -76 9 -22 42 -15 224 46 197 66 216 74 223 98 2 10 7 28 11 39 5 20 -16 55 -33 53 -4 0 -95 -34 -202 -75z"/>
			<path d="M583 652 c-7 -5 -23 -39 -35 -78 -22 -65 -25 -69 -55 -72 -36 -4 -40 5 -45 83 -3 37 -5 40 -33 40 -32 0 -35 -4 -80 -111 -49 -115 -119 -101 -96 19 9 49 1 69 -31 80 -45 16 -92 -90 -93 -210 0 -86 20 -120 82 -142 53 -19 108 -4 151 40 29 30 31 30 53 15 33 -23 104 -21 140 5 41 29 79 109 95 201 14 838 120 -21 132 -20 7 -17 7 -32 -2z"/>
		</g>
		<g id="img7" transform="translate(0.000000,103.000000) scale(0.100000,-0.100000)" fill="#000000" stroke="none">
			<path d="M420 580 c-124 -77 -235 -152 -248 -166 -39 -45 -20 -134 26 -117 25 9 380 212 428 245 44 29 74 90 74 150 0 53 -40 37 -280 -112z"/>
		</g>		
		<g id="img8" transform="translate(0.000000,92.000000) scale(0.100000,-0.100000)" fill="#000000" stroke="none">
			<path d="M742 748 c-61 -40 -160 -102 -219 -138 -92 -56 -111 -72 -130 -110 -13 -24 -23 -57 -23 -72 0 -45 36 -36 172 43 68 39 162 93 209 120 104 60 134 90 150 150 27 102 -10 103 -159 7z"/>
			<path d="M650 457 c-118 -79 -222 -152 -230 -161 -8 -11 -14 -40 -15 -70 0 -44 3 -51 20 -54 12 -1 108 51 230 126 204 125 211 129 238 182 15 29 27 69 27 87 0 60 -35 46 -270 -110z"/>
		</g>	
		<g id="img9" transform="translate(0.000000,107.000000) scale(0.100000,-0.100000)" fill="#000000" stroke="none">
			<path d="M842 845 c-7 -14 -12 -36 -12 -48 0 -12 -9 -37 -20 -54 -37 -61 -100 -32 -85 38 5 22 2 36 -11 50 -38 42 -67 18 -99 -79 -17 -52 -65 -112 -90 -112 -24 0 -30 22 -30 105 0 92 -12 103 -63 60 -62 -52 -89 -223 -47 -292 20 -34 76 -63 121 -63 31 0 80 24 115 56 24 23 27 24 55 9 74 -38 147 -9 199 79 31 53 62 207 49 244 -14 39 -66 44 -82 7z"/>
			<path d="M636 370 c-109 -49 -204 -94 -211 -100 -15 -13 -27 -64 -19 -85 10 -26 57 -17 247 50 102 36 190 65 196 65 20 0 40 46 43 100 3 55 3 55 -27 57 -19 1 -100 -29 -229 -87z"/>
		</g>
		<g id="img10" transform="translate(0.000000,107.000000) scale(0.100000,-0.100000)" fill="#000000" stroke="none">
			<path d="M806 875 c-8 -9 -18 -32 -22 -53 -14 -77 -46 -112 -85 -92 -15 8 -19 22 -19 58 0 54 -6 67 -36 76 -26 8 -47 -15 -64 -69 -39 -123 -102 -174 -130 -105 -10 23 -10 36 0 59 17 43 10 85 -17 89 -63 9 -107 -78 -108 -213 0 -61 4 -86 18 -107 19 -27 81 -58 118 -58 27 0 78 26 111 58 26 24 28 24 62 8 18 -9 51 -16 72 -16 32 0 45 7 84 48 53 55 79 122 87 227 5 59 3 74 -11 88 -21 21 -40 22 -60 2z"/>
			<path d="M705 484 c-66 -30 -156 -71 -200 -91 -95 -42 -102 -47 -110 -94 -9 -51 11 -66 68 -49 89 26 383 134 394 144 7 7 14 41 15 76 3 63 2 65 -22 67 -14 1 -79 -23 -145 -53z"/>
			<path d="M720 284 c-69 -30 -159 -68 -200 -85 -91 -37 -102 -47 -104 -96 -1 -34 2 -38 26 -41 23 -3 190 48 405 122 34 11 46 33 57 95 7 39 -7 61 -38 60 -11 0 -77 -25 -146 -55z"/>
		</g>
		<g id="img11" transform="translate(0.000000,98.000000) scale(0.100000,-0.100000)" fill="#000000" stroke="none">
			<path d="M585 912 c-71 -33 -144 -138 -145 -207 0 -23 12 -41 54 -81 l54 -51 -56 -57 c-31 -31 -100 -87 -154 -124 -106 -71 -124 -97 -93 -132 24 -27 39 -25 104 11 85 48 163 112 232 189 62 68 62 69 90 54 40 -20 45 -18 74 23 35 52 33 89 -5 111 -20 11 -28 22 -24 32 4 8 9 43 12 77 10 132 -50 197 -143 155z"/>
		</g>	
		<g id="img12" transform="translate(0.000000,100.000000) scale(0.100000,-0.100000)" fill="#000000" stroke="none">
			<path d="M415 830 c-46 -18 -145 -159 -145 -205 0 -24 45 -90 81 -118 l32 -25 -32 -40 c-35 -43 -129 -121 -201 -166 -97 -61 -124 -108 -79 -139 45 -32 149 31 300 180 l116 115 27 -17 c41 -27 70 -13 95 44 24 57 20 76 -21 97 -21 11 -28 20 -23 32 12 30 18 119 11 156 -4 19 -18 49 -32 66 -21 25 -33 30 -67 29 -23 0 -51 -4 -62 -9z"/>
			<path d="M794 817 c-46 -27 -76 -58 -109 -113 -53 -88 -44 -140 35 -206 l41 -34 -65 -66 c-36 -36 -98 -87 -138 -114 -101 -65 -128 -92 -128 -126 0 -32 30 -53 62 -42 59 18 155 89 260 192 114 111 119 115 137 98 30 -27 62 -16 88 29 32 56 30 82 -8 103 -26 15 -29 21 -24 47 22 105 13 171 -31 219 -27 29 -82 35 -120 13z"/>
		</g>
		<g id="img13" transform="translate(0.000000,123.000000) scale(0.100000,-0.100000)" fill="#000000" stroke="none">
			<path d="M434 1188 c-103 -95 -116 -196 -35 -259 l32 -25 -68 -66 c-37 -36 -87 -84 -111 -107 -47 -44 -52 -74 -14 -79 36 -5 102 40 186 128 73 76 80 81 103 71 38 -17 52 -13 73 22 28 45 26 81 -5 95 -29 13 -29 14 -10 67 26 72 16 164 -19 187 -6 4 -28 8 -49 8 -30 0 -46 -8 -83 -42z"/>
			<path d="M643 645 c-12 -8 -24 -31 -28 -52 -12 -64 -32 -93 -65 -93 -25 0 -30 4 -36 35 -3 19 -3 42 0 51 8 22 -11 44 -39 44 -28 0 -39 -13 -55 -65 -19 -61 -50 -112 -76 -123 -36 -17 -48 7 -41 83 6 61 5 66 -18 81 -46 30 -78 -17 -110 -164 -34 -158 119 -250 236 -141 29 27 33 28 52 14 12 -8 43 -15 68 -15 60 0 103 34 134 105 25 55 51 195 42 219 -10 26 -42 37 -64 21z"/>
		</g>
		<g id="img14" transform="translate(0.000000,100.000000) scale(0.100000,-0.100000)" fill="#000000" stroke="none">
			<path d="M755 981 c-65 -40 -135 -146 -135 -203 0 -37 23 -81 56 -107 l26 -20 -37 -45 c-20 -25 -68 -70 -106 -101 -75 -60 -95 -99 -65 -121 20 -14 18 -28 -21 -115 -28 -64 -62 -89 -88 -63 -17 17 -18 30 -6 93 7 36 6 46 -10 62 -23 23 -31 24 -57 2 -30 -27 -56 -118 -57 -200 0 -86 20 -120 82 -142 53 -19 108 -4 151 40 29 30 31 30 53 15 32 -22 97 -20 136 4 43 26 82 106 99 202 14 82 8 120 -20 131 -30 12 -45 -5 -68 -76 -21 -66 -26 -72 -52 -75 -36 -4 -46 10 -46 70 0 26 -5 50 -12 54 -7 5 -5 11 8 21 10 7 61 55 111 105 88 87 94 91 118 80 40 -18 54 -15 75 21 27 44 25 77 -6 102 l-27 21 18 70 c21 82 15 135 -20 170 -29 29 -60 30 -100 5z"/>
			<path d="M489 970 c-20 -11 -52 -41 -72 -67 -85 -118 -88 -162 -14 -240 l30 -32 -38 -43 c-21 -24 -70 -70 -109 -103 -70 -60 -92 -99 -66 -115 35 -21 144 51 233 153 l51 58 52 -7 53 -6 20 41 c27 53 27 61 -9 91 l-29 25 20 70 c17 60 18 76 8 113 -12 44 -49 82 -78 82 -9 -1 -32 -10 -52 -20z"/>
		</g>
	</defs>
	<style>
		tspan { white-space:pre }
		.shp0 { fill: #ff0000 } 
	</style>
	<g id="red_guides">
		<path id="Shape 1" class="shp0" d="M0.49 251.5L0.51 246.5L407.51 248.5L407.49 253.5L0.49 251.5Z" />
		<path id="Shape 2" class="shp0" d="M100 -0.01L103 0.01L100 400.01L97 399.99L100 -0.01Z" />
		<path id="Shape 2 copy" class="shp0" d="M200 -0.01L203 0.01L200 400.01L197 399.99L200 -0.01Z" />
		<path id="Shape 2 copy 2" class="shp0" d="M300 -0.01L303 0.01L300 400.01L297 399.99L300 -0.01Z" />
	</g>
	<g id="alif_byitsself" style="display: none">
		<path id="ا " fill="#000000" d="M188 125.36L196.71 106.6Q201.02 97.27 202.25 110.8L207.27 162.07Q213.53 231.29 204.3 248.92Q202.25 252.82 200.3 252.1Q198.35 251.38 198.56 241.95Q198.87 225.75 191.18 168.94L186.66 133.98Q186.05 129.47 188 125.36Z" />
		<use id="fatha" style="display: none" href="#img1" transform="matrix(1,0,0,1,125,14)"/>
		<use id="fathax2" style="display: none" href="#img2" transform="matrix(1,0,0,1,108,13)"/>
		<use id="kesra" style="display: none" href="#img1" transform="matrix(1,0,0,1,163,248)"/>
		<use id="kesrax2" style="display: none" href="#img2" transform="matrix(1,0,0,1,143,251)"/>
		<use id="dama" style="display: none" href="#img3" transform="matrix(1,0,0,1,123,14)"/>
		<use id="damax2" style="display: none" href="#img4" transform="matrix(1,0,0,1,100,-1)"/>
		<use id="shada_f" style="display: none" href="#img5" transform="matrix(1,0,0,1,112,-10)"/>
		<use id="shada_f2" style="display: none" href="#img6" transform="matrix(1,0,0,1,129,-10)"/>
		<use id="shada_k" style="display: none" href="#img7" transform="matrix(1,0,0,1,101,-2)"/>
		<use id="shada_k2" style="display: none" href="#img8" transform="matrix(1,0,0,1,103,-13)"/>
		<use id="shada_d" style="display: none" href="#img9" transform="matrix(1,0,0,1,120,3)"/>
		<use id="shada_d2" style="display: none" href="#img10" transform="matrix(1,0,0,1,104,1)"/>
		<use id="sukoon" style="display: none" href="#img11" transform="matrix(1,0,0,1,128,15)"/>
		<use id="shada copy 3" style="display: none" href="#img12" transform="matrix(1,0,0,1,120,17)"/>
	</g>
	<g id="alif_hamza" style="display: none">
		<path id="أ " fill="#000000" d="M187.56 132.36L196.28 113.6Q200.58 104.27 201.81 117.8L206.84 169.07Q213.09 238.29 203.86 255.92Q201.81 259.82 199.87 259.1Q197.92 258.38 198.12 248.95Q198.43 232.75 190.74 175.94L186.23 140.98Q185.61 136.47 187.56 132.36ZM213.5 89.91Q202.22 92.17 197.51 93.71Q192.79 95.14 179.97 100.78Q176.08 102.22 174.13 99.45Q171.15 94.73 180.59 88.27Q174.33 84.38 173.31 79.66Q171.67 70.43 180.79 57.82Q190.02 45.21 200.79 46.03Q208.68 46.64 207.86 54.33Q207.15 61.92 204.89 65.1Q202.63 68.17 201.61 68.89Q198.53 70.94 196.38 67.87Q194.23 64.69 190.84 64.38Q187.56 64.07 185.92 65.92Q184.38 67.76 186.02 69.41Q192.69 75.56 205.4 75.97Q207.45 75.97 211.66 74.94Q215.96 73.92 218.12 74.02Q220.37 74.12 221.6 76.07Q222.73 78.12 222.01 79.86Q217.6 88.99 213.5 89.91Z" />
		<use id="fatha copy 4" style="display: none" href="#img1" transform="matrix(1,0,0,1,120,-19)"/>
		<use id="fathax2 copy 4" style="display: none" href="#img2" transform="matrix(1,0,0,1,90,-5)"/>
		<use id="kesra copy 4" style="display: none" href="#img1" transform="matrix(1,0,0,1,163,248)"/>
		<use id="kesrax2 copy 4" style="display: none" href="#img2" transform="matrix(1,0,0,1,143,251)"/>
		<use id="dama copy 4" style="display: none" href="#img3" transform="matrix(1,0,0,1,109,0)"/>
		<use id="damax2 copy 3" style="display: none" href="#img4" transform="matrix(1,0,0,1,100,-16)"/>
		<use id="shada_f copy 4" style="display: none" href="#img5" transform="matrix(1,0,0,1,97,-26)"/>
		<use id="shada_f2 copy 4" style="display: none" href="#img6" transform="matrix(1,0,0,1,104,-15)"/>
		<use id="shada_k copy 4" style="display: none" href="#img7" transform="matrix(1,0,0,1,84,-19)"/>
		<use id="shada_k2 copy 4" style="display: none" href="#img8" transform="matrix(1,0,0,1,83,-14)"/>
		<use id="shada_d copy 4" style="display: none" href="#img9" transform="matrix(1,0,0,1,96,0)"/>
		<use id="shada_d2 copy 3" href="#img10" transform="matrix(1,0,0,1,82,-1)"/>
		<use id="sukoon copy 4" style="display: none" href="#img11" transform="matrix(1,0,0,1,111,-23)"/>
		<use id="shada copy 4" style="display: none" href="#img12" transform="matrix(1,0,0,1,118,-21)"/>
	</g>
	<g id="alif_middle" style="display: none">
		<path id="ـأ " fill="#000000" d="M189.43 103.96L197.22 90.73Q201.33 83.76 202.35 92.17Q206.76 131.13 207.48 163.63Q208.3 196.14 208.81 203.21Q209.84 219.62 228.7 220.85Q235.06 221.26 236.09 227.21Q236.5 229.57 235.57 235Q234.65 240.44 233.21 243.21Q231.88 245.97 228.81 246.08Q199.07 246.08 197.22 217.67Q196.4 204.65 195.58 173.38Q194.76 145.08 188.41 112.67Q187.38 107.44 189.43 103.96ZM215.68 73.91Q204.4 76.17 199.68 77.71Q194.97 79.14 182.15 84.78Q178.25 86.22 176.31 83.45Q173.33 78.73 182.77 72.27Q176.51 68.38 175.49 63.66Q173.84 54.43 182.97 41.82Q192.2 29.21 202.97 30.03Q210.86 30.64 210.04 38.33Q209.32 45.92 207.07 49.1Q204.81 52.17 203.79 52.89Q200.71 54.94 198.56 51.87Q196.4 48.69 193.02 48.38Q189.74 48.07 188.1 49.92Q186.56 51.76 188.2 53.41Q194.87 59.56 207.58 59.97Q209.63 59.97 213.83 58.94Q218.14 57.92 220.29 58.02Q222.55 58.12 223.78 60.07Q224.91 62.12 224.19 63.86Q219.78 72.99 215.68 73.91ZM228.6 246.08Q224.6 245.77 223.17 240.64L220.5 231.52Q218.55 223.11 225.63 221.26Q227.27 220.85 237.93 221.47Q248.6 221.98 259.05 221.47Q269.62 220.85 271.15 221.26Q276.38 222.59 276.49 228.44Q276.49 229.98 276.08 231.52L273.41 240.64Q271.87 245.67 267.98 246.08Q248.19 247.31 228.6 246.08Z" />
		<use id="fatha copy 2" style="display: none" href="#img1" transform="matrix(1,0,0,1,113,-18)"/>
		<use id="fathax2 copy 2" style="display: none" href="#img2" transform="matrix(1,0,0,1,92,-10)"/>
		<use id="kesra copy 2" style="display: none" href="#img1" transform="matrix(1,0,0,1,158,242)"/>
		<use id="kesrax2 copy 2" style="display: none" href="#img2" transform="matrix(1,0,0,1,142,252)"/>
		<use id="dama copy 2" style="display: none" href="#img3" transform="matrix(1,0,0,1,106,-5)"/>
		<use id="damax2 copy" style="display: none" href="#img4" transform="matrix(1,0,0,1,83,-15)"/>
		<use id="shada_f copy 2" style="display: none" href="#img5" transform="matrix(1,0,0,1,86,-25)"/>
		<use id="shada_f2 copy 2" style="display: none" href="#img6" transform="matrix(1,0,0,1,107,-15)"/>
		<use id="shada_k copy 2" style="display: none" href="#img7" transform="matrix(1,0,0,1,78,-15)"/>
		<use id="shada_k2 copy 2" style="display: none" href="#img8" transform="matrix(1,0,0,1,81,-18)"/>
		<use id="shada_d copy 2" style="display: none" href="#img9" transform="matrix(1,0,0,1,98,1)"/>
		<use id="shada_d2 copy" style="display: none" href="#img10" transform="matrix(1,0,0,1,87,1)"/>
		<use id="sukoon copy 2" style="display: none" href="#img11" transform="matrix(1,0,0,1,112,-23)"/>
		<use id="shada copy" style="display: none" href="#img12" transform="matrix(1,0,0,1,101,-20)"/>
	</g>
	<g id="alif_middle_hamza">
		<path id="ـا " fill="#000000" d="M211.27 81.71Q217.73 81.3 216.91 88.17L215.17 102.21Q214.55 106.83 209.02 107.44Q203.48 108.06 200.71 109.19Q198.05 110.31 198.05 121.49Q198.25 169.07 205.02 185.07Q217.73 215.31 265.72 220.65Q295.25 223.93 341.19 220.95Q349.19 220.44 350.52 226.59Q350.93 228.44 350.62 230.49Q348.68 242.18 344.88 244.74Q343.55 245.67 341.91 246.08Q332.37 247.61 295.56 247.51Q225.73 247.31 205.12 221.77Q194.46 208.55 191.28 180.96Q189.64 166.81 189.43 158.92Q188.51 114.62 190.25 102.21Q191.48 93.4 196.51 87.86Q201.63 82.32 211.27 81.71Z" />
		<use id="fatha copy 3" style="display: none" href="#img1" transform="matrix(1,0,0,1,130,-15)"/>
		<use id="fathax2 copy 3" style="display: none" href="#img2" transform="matrix(1,0,0,1,103,-11)"/>
		<use id="kesra copy 3" style="display: none" href="#img1" transform="matrix(1,0,0,1,158,233)"/>
		<use id="kesrax2 copy 3" style="display: none" href="#img2" transform="matrix(1,0,0,1,131,244)"/>
		<use id="dama copy 3" style="display: none" href="#img3" transform="matrix(1,0,0,1,114,-1)"/>
		<use id="damax2 copy 2" style="display: none" href="#img4" transform="matrix(1,0,0,1,100,-16)"/>
		<use id="shada_f copy 3" style="display: none" href="#img5" transform="matrix(1,0,0,1,117,-21)"/>
		<use id="shada_f2 copy 3" style="display: none" href="#img6" transform="matrix(1,0,0,1,133,-17)"/>
		<use id="shada_k copy 3" style="display: none" href="#img7" transform="matrix(1,0,0,1,107,-9)"/>
		<use id="shada_k2 copy 3" style="display: none" href="#img8" transform="matrix(1,0,0,1,102,-16)"/>
		<use id="shada_d copy 3" style="display: none" href="#img9" transform="matrix(1,0,0,1,117,1)"/>
		<use id="shada_d2 copy 2" style="display: none" href="#img10" transform="matrix(1,0,0,1,99,0)"/>
		<use id="sukoon copy 3" style="display: none" href="#img11" transform="matrix(1,0,0,1,137,-9)"/>
		<use id="shada copy 2" href="#img12" transform="matrix(1,0,0,1,120,-7)"/>
	</g>
</svg>