<svg xmlns="http://www.w3.org/2000/svg" viewBox="0 0 400 400" width="400" height="400">
		<defs>
		<g id="img1" transform="translate(0.000000,99.000000) scale(0.100000,-0.100000)" fill="#000000" stroke="none">
			<path d="M347 648 c-50 -48 -89 -131 -94 -203 -6 -74 24 -138 77 -166 51 -28 152 -26 210 4 172 86 82 397 -114 397 -37 0 -51 -6 -79 -32z m149 -133 c8 -11 13 -14 9 -7 -13 26 4 10 24 -22 31 -49 20 -66 -43 -68 -80 -2 -110 3 -128 19 -22 20 -22 35 -3 73 14 27 18 29 70 27 40 -2 59 -8 71 -22z"/>
		</g>
		<g id="img2" transform="translate(0.000000,99.000000) scale(0.100000,-0.100000)" fill="#000000" stroke="none">
			<path d="M347 648 c-50 -48 -89 -131 -94 -203 -6 -74 24 -138 77 -166 51 -28 152 -26 210 4 172 86 82 397 -114 397 -37 0 -51 -6 -79 -32z m149 -133 c8 -11 13 -14 9 -7 -13 26 4 10 24 -22 31 -49 20 -66 -43 -68 -80 -2 -110 3 -128 19 -22 20 -22 35 -3 73 14 27 18 29 70 27 40 -2 59 -8 71 -22z"/>
		</g>
		<g id="img3" transform="translate(0.000000,103.000000) scale(0.100000,-0.100000)" fill="#000000" stroke="none">
			<path d="M420 580 c-124 -77 -235 -152 -248 -166 -39 -45 -20 -134 26 -117 25 9 380 212 428 245 44 29 74 90 74 150 0 53 -40 37 -280 -112z"/>
		</g>
		<g id="img4" transform="translate(0.000000,92.000000) scale(0.100000,-0.100000)" fill="#000000" stroke="none">
			<path d="M742 748 c-61 -40 -160 -102 -219 -138 -92 -56 -111 -72 -130 -110 -13 -24 -23 -57 -23 -72 0 -45 36 -36 172 43 68 39 162 93 209 120 104 60 134 90 150 150 27 102 -10 103 -159 7z"/>
			<path d="M650 457 c-118 -79 -222 -152 -230 -161 -8 -11 -14 -40 -15 -70 0 -44 3 -51 20 -54 12 -1 108 51 230 126 204 125 211 129 238 182 15 29 27 69 27 87 0 60 -35 46 -270 -110z"/>
		</g>		
		<g id="img5" transform="translate(0.000000,123.000000) scale(0.100000,-0.100000)" fill="#000000" stroke="none">
			<path d="M560 881 c-145 -65 -199 -94 -209 -112 -18 -33 -8 -79 18 -79 36 0 413 136 422 153 5 9 11 40 12 69 2 50 1 53 -23 55 -14 1 -113 -38 -220 -86z"/>
			<path d="M764 652 c-16 -10 -30 -42 -38 -84 -8 -45 -29 -68 -62 -68 -26 0 -32 14 -36 85 -3 37 -5 40 -35 43 -30 3 -32 0 -52 -53 -42 -112 -58 -135 -97 -135 -29 0 -35 21 -28 96 7 63 6 64 -21 74 -38 15 -57 -5 -81 -83 -26 -86 -26 -187 2 -224 48 -64 137 -67 204 -7 37 34 40 35 62 20 13 -9 43 -16 69 -16 72 0 119 53 153 170 23 82 24 160 1 176 -21 16 -26 17 -41 6z"/>
		</g>		
		<g id="img6" transform="translate(0.000000,123.000000) scale(0.100000,-0.100000)" fill="#000000" stroke="none">
			<path d="M575 1061 c-72 -30 -369 -163 -385 -173 -40 -25 -34 -98 8 -98 37 0 388 143 410 167 27 29 31 97 6 107 -9 3 -16 6 -17 5 -1 0 -11 -4 -22 -8z"/>
			<path d="M390 814 c-107 -41 -199 -79 -206 -85 -14 -11 -24 -57 -17 -76 9 -22 42 -15 224 46 197 66 216 74 223 98 2 10 7 28 11 39 5 20 -16 55 -33 53 -4 0 -95 -34 -202 -75z"/>
			<path d="M583 652 c-7 -5 -23 -39 -35 -78 -22 -65 -25 -69 -55 -72 -36 -4 -40 5 -45 83 -3 37 -5 40 -33 40 -32 0 -35 -4 -80 -111 -49 -115 -119 -101 -96 19 9 49 1 69 -31 80 -45 16 -92 -90 -93 -210 0 -86 20 -120 82 -142 53 -19 108 -4 151 40 29 30 31 30 53 15 33 -23 104 -21 140 5 41 29 79 109 95 201 14 838 120 -21 132 -20 7 -17 7 -32 -2z"/>
		</g>
		<g id="img7" transform="translate(0.000000,103.000000) scale(0.100000,-0.100000)" fill="#000000" stroke="none">
			<path d="M420 580 c-124 -77 -235 -152 -248 -166 -39 -45 -20 -134 26 -117 25 9 380 212 428 245 44 29 74 90 74 150 0 53 -40 37 -280 -112z"/>
		</g>		
		<g id="img8" transform="translate(0.000000,92.000000) scale(0.100000,-0.100000)" fill="#000000" stroke="none">
			<path d="M742 748 c-61 -40 -160 -102 -219 -138 -92 -56 -111 -72 -130 -110 -13 -24 -23 -57 -23 -72 0 -45 36 -36 172 43 68 39 162 93 209 120 104 60 134 90 150 150 27 102 -10 103 -159 7z"/>
			<path d="M650 457 c-118 -79 -222 -152 -230 -161 -8 -11 -14 -40 -15 -70 0 -44 3 -51 20 -54 12 -1 108 51 230 126 204 125 211 129 238 182 15 29 27 69 27 87 0 60 -35 46 -270 -110z"/>
		</g>	
		<g id="img9" transform="translate(0.000000,107.000000) scale(0.100000,-0.100000)" fill="#000000" stroke="none">
			<path d="M842 845 c-7 -14 -12 -36 -12 -48 0 -12 -9 -37 -20 -54 -37 -61 -100 -32 -85 38 5 22 2 36 -11 50 -38 42 -67 18 -99 -79 -17 -52 -65 -112 -90 -112 -24 0 -30 22 -30 105 0 92 -12 103 -63 60 -62 -52 -89 -223 -47 -292 20 -34 76 -63 121 -63 31 0 80 24 115 56 24 23 27 24 55 9 74 -38 147 -9 199 79 31 53 62 207 49 244 -14 39 -66 44 -82 7z"/>
			<path d="M636 370 c-109 -49 -204 -94 -211 -100 -15 -13 -27 -64 -19 -85 10 -26 57 -17 247 50 102 36 190 65 196 65 20 0 40 46 43 100 3 55 3 55 -27 57 -19 1 -100 -29 -229 -87z"/>
		</g>
		<g id="img10" transform="translate(0.000000,107.000000) scale(0.100000,-0.100000)" fill="#000000" stroke="none">
			<path d="M806 875 c-8 -9 -18 -32 -22 -53 -14 -77 -46 -112 -85 -92 -15 8 -19 22 -19 58 0 54 -6 67 -36 76 -26 8 -47 -15 -64 -69 -39 -123 -102 -174 -130 -105 -10 23 -10 36 0 59 17 43 10 85 -17 89 -63 9 -107 -78 -108 -213 0 -61 4 -86 18 -107 19 -27 81 -58 118 -58 27 0 78 26 111 58 26 24 28 24 62 8 18 -9 51 -16 72 -16 32 0 45 7 84 48 53 55 79 122 87 227 5 59 3 74 -11 88 -21 21 -40 22 -60 2z"/>
			<path d="M705 484 c-66 -30 -156 -71 -200 -91 -95 -42 -102 -47 -110 -94 -9 -51 11 -66 68 -49 89 26 383 134 394 144 7 7 14 41 15 76 3 63 2 65 -22 67 -14 1 -79 -23 -145 -53z"/>
			<path d="M720 284 c-69 -30 -159 -68 -200 -85 -91 -37 -102 -47 -104 -96 -1 -34 2 -38 26 -41 23 -3 190 48 405 122 34 11 46 33 57 95 7 39 -7 61 -38 60 -11 0 -77 -25 -146 -55z"/>
		</g>
		<g id="img11" transform="translate(0.000000,98.000000) scale(0.100000,-0.100000)" fill="#000000" stroke="none">
			<path d="M585 912 c-71 -33 -144 -138 -145 -207 0 -23 12 -41 54 -81 l54 -51 -56 -57 c-31 -31 -100 -87 -154 -124 -106 -71 -124 -97 -93 -132 24 -27 39 -25 104 11 85 48 163 112 232 189 62 68 62 69 90 54 40 -20 45 -18 74 23 35 52 33 89 -5 111 -20 11 -28 22 -24 32 4 8 9 43 12 77 10 132 -50 197 -143 155z"/>
		</g>	
		<g id="img12" transform="translate(0.000000,100.000000) scale(0.100000,-0.100000)" fill="#000000" stroke="none">
			<path d="M415 830 c-46 -18 -145 -159 -145 -205 0 -24 45 -90 81 -118 l32 -25 -32 -40 c-35 -43 -129 -121 -201 -166 -97 -61 -124 -108 -79 -139 45 -32 149 31 300 180 l116 115 27 -17 c41 -27 70 -13 95 44 24 57 20 76 -21 97 -21 11 -28 20 -23 32 12 30 18 119 11 156 -4 19 -18 49 -32 66 -21 25 -33 30 -67 29 -23 0 -51 -4 -62 -9z"/>
			<path d="M794 817 c-46 -27 -76 -58 -109 -113 -53 -88 -44 -140 35 -206 l41 -34 -65 -66 c-36 -36 -98 -87 -138 -114 -101 -65 -128 -92 -128 -126 0 -32 30 -53 62 -42 59 18 155 89 260 192 114 111 119 115 137 98 30 -27 62 -16 88 29 32 56 30 82 -8 103 -26 15 -29 21 -24 47 22 105 13 171 -31 219 -27 29 -82 35 -120 13z"/>
		</g>
		<g id="img13" transform="translate(0.000000,123.000000) scale(0.100000,-0.100000)" fill="#000000" stroke="none">
			<path d="M434 1188 c-103 -95 -116 -196 -35 -259 l32 -25 -68 -66 c-37 -36 -87 -84 -111 -107 -47 -44 -52 -74 -14 -79 36 -5 102 40 186 128 73 76 80 81 103 71 38 -17 52 -13 73 22 28 45 26 81 -5 95 -29 13 -29 14 -10 67 26 72 16 164 -19 187 -6 4 -28 8 -49 8 -30 0 -46 -8 -83 -42z"/>
			<path d="M643 645 c-12 -8 -24 -31 -28 -52 -12 -64 -32 -93 -65 -93 -25 0 -30 4 -36 35 -3 19 -3 42 0 51 8 22 -11 44 -39 44 -28 0 -39 -13 -55 -65 -19 -61 -50 -112 -76 -123 -36 -17 -48 7 -41 83 6 61 5 66 -18 81 -46 30 -78 -17 -110 -164 -34 -158 119 -250 236 -141 29 27 33 28 52 14 12 -8 43 -15 68 -15 60 0 103 34 134 105 25 55 51 195 42 219 -10 26 -42 37 -64 21z"/>
		</g>
		<g id="img14" transform="translate(0.000000,100.000000) scale(0.100000,-0.100000)" fill="#000000" stroke="none">
			<path d="M755 981 c-65 -40 -135 -146 -135 -203 0 -37 23 -81 56 -107 l26 -20 -37 -45 c-20 -25 -68 -70 -106 -101 -75 -60 -95 -99 -65 -121 20 -14 18 -28 -21 -115 -28 -64 -62 -89 -88 -63 -17 17 -18 30 -6 93 7 36 6 46 -10 62 -23 23 -31 24 -57 2 -30 -27 -56 -118 -57 -200 0 -86 20 -120 82 -142 53 -19 108 -4 151 40 29 30 31 30 53 15 32 -22 97 -20 136 4 43 26 82 106 99 202 14 82 8 120 -20 131 -30 12 -45 -5 -68 -76 -21 -66 -26 -72 -52 -75 -36 -4 -46 10 -46 70 0 26 -5 50 -12 54 -7 5 -5 11 8 21 10 7 61 55 111 105 88 87 94 91 118 80 40 -18 54 -15 75 21 27 44 25 77 -6 102 l-27 21 18 70 c21 82 15 135 -20 170 -29 29 -60 30 -100 5z"/>
			<path d="M489 970 c-20 -11 -52 -41 -72 -67 -85 -118 -88 -162 -14 -240 l30 -32 -38 -43 c-21 -24 -70 -70 -109 -103 -70 -60 -92 -99 -66 -115 35 -21 144 51 233 153 l51 58 52 -7 53 -6 20 41 c27 53 27 61 -9 91 l-29 25 20 70 c17 60 18 76 8 113 -12 44 -49 82 -78 82 -9 -1 -32 -10 -52 -20z"/>
		</g>
	</defs>
	<style>
		tspan { white-space:pre }
		.shp0 { fill: #ff0000 } 
	</style>
	<g id="red_guides">
		<path id="Shape 1" class="shp0" d="M0.49 251.5L0.51 246.5L407.51 248.5L407.49 253.5L0.49 251.5Z" />
		<path id="Shape 2" class="shp0" d="M100 -0.01L103 0.01L100 400.01L97 399.99L100 -0.01Z" />
		<path id="Shape 2 copy" class="shp0" d="M200 -0.01L203 0.01L200 400.01L197 399.99L200 -0.01Z" />
		<path id="Shape 2 copy 2" class="shp0" d="M300 -0.01L303 0.01L300 400.01L297 399.99L300 -0.01Z" />
	</g>
	<g id="lam_byitsself" style="display: none">
		<path id="ل " fill="#000000" d="M228.39 183.29Q227.36 177.34 226.23 170.78Q224.08 165.45 226.34 161.14L231.67 150.68Q234.64 144.83 237.72 153.45Q240.79 162.06 247.25 167.5Q251.56 171.08 248.08 175.6L242.95 182.36Q243.77 196.41 246.74 220.61Q249.82 244.81 250.74 258.24Q252.28 280.49 244.9 298.13Q239.87 309.92 222.13 317.92Q204.5 325.82 189.94 325.61Q160.51 325.2 151.89 303.57Q148.92 296.08 148.92 287.16Q148.92 263.47 163.89 244.61Q167.07 240.61 168.81 242.55Q170.66 244.5 168.4 248.5Q158.35 266.34 159.28 275.37Q161.63 298.44 196.7 297.21Q226.95 296.18 239.67 280.9Q234.33 242.35 232.49 223.58Q230.64 204.72 228.39 183.29Z" />
		<use id="fatha" style="display: none" href="#img1" transform="matrix(1,0,0,1,130,139)"/>
		<use id="fathax2" style="display: none" href="#img2" transform="matrix(1,0,0,1,107,132)"/>
		<use id="kesra" style="display: none" href="#img1" transform="matrix(1,0,0,1,124,306)"/>
		<use id="kesrax2" style="display: none" href="#img2" transform="matrix(1,0,0,1,102,318)"/>
		<use id="dama" style="display: none" href="#img3" transform="matrix(1,0,0,1,123,139)"/>
		<use id="damax2" style="display: none" href="#img4" transform="matrix(1,0,0,1,109,124)"/>
		<use id="shada_f" style="display: none" href="#img5" transform="matrix(1,0,0,1,117,115)"/>
		<use id="shada_f2" style="display: none" href="#img6" transform="matrix(1,0,0,1,141,115)"/>
		<use id="shada_k" style="display: none" href="#img7" transform="matrix(1,0,0,1,113,123)"/>
		<use id="shada_k2" style="display: none" href="#img8" transform="matrix(1,0,0,1,115,112)"/>
		<use id="shada_d" style="display: none" href="#img9" transform="matrix(1,0,0,1,129,115)"/>
		<use id="shada_d2" style="display: none" href="#img10" transform="matrix(1,0,0,1,118,114)"/>
		<use id="sukoon" style="display: none" href="#img11" transform="matrix(1,0,0,1,143,140)"/>
	</g>
	<g id="lam_middle" style="display: none">
		<path id="ـلـ " fill="#000000" d="M140.79 247.08Q136.8 246.77 135.36 241.64L132.69 232.52Q130.75 224.11 137.82 222.26Q139.46 221.85 150.13 222.47Q160.79 222.98 171.25 222.47Q181.81 221.85 183.35 222.26Q188.58 223.59 188.68 229.44Q188.68 230.98 188.27 232.52L185.6 241.64Q184.07 246.67 180.17 247.08Q160.38 248.31 140.79 247.08ZM199.55 219.9Q195.14 246.97 179.96 247.08Q176.07 247.18 174.74 242.67Q169.61 225.24 179.96 222.06Q192.06 218.26 192.06 205.86L188.48 114.9Q188.27 110.29 190.01 108.34L197.81 99.63Q201.91 95.01 201.91 104.85Q201.91 104.85 204.06 153.25Q205.7 192.12 207.34 200.52Q211.03 219.39 221.49 222.06Q226.72 223.29 227.24 231.59Q227.85 239.9 225.49 244.82Q224.36 247.08 221.49 247.08Q207.24 246.97 199.55 219.9ZM221.29 247.08Q217.29 246.77 215.85 241.64L213.19 232.52Q211.24 224.11 218.31 222.26Q219.96 221.85 230.62 222.47Q241.28 222.98 251.74 222.47Q262.3 221.85 263.84 222.26Q269.07 223.59 269.17 229.44Q269.17 230.98 268.76 232.52L266.1 241.64Q264.56 246.67 260.66 247.08Q240.87 248.31 221.29 247.08Z" />
		<use id="fatha copy" style="display: none" href="#img1" transform="matrix(1,0,0,1,130,21)"/>
		<use id="fathax2 copy" style="display: none" href="#img2" transform="matrix(1,0,0,1,108,20)"/>
		<use id="kesra copy" style="display: none" href="#img1" transform="matrix(1,0,0,1,160,239)"/>
		<use id="kesrax2 copy" style="display: none" href="#img2" transform="matrix(1,0,0,1,133,251)"/>
		<use id="dama copy" style="display: none" href="#img3" transform="matrix(1,0,0,1,125,21)"/>
		<use id="damax2 copy 3" style="display: none" href="#img4" transform="matrix(1,0,0,1,102,6)"/>
		<use id="shada_f copy" style="display: none" href="#img5" transform="matrix(1,0,0,1,117,-3)"/>
		<use id="shada_f2 copy" style="display: none" href="#img6" transform="matrix(1,0,0,1,135,-4)"/>
		<use id="shada_k copy" style="display: none" href="#img7" transform="matrix(1,0,0,1,107,2)"/>
		<use id="shada_k2 copy" style="display: none" href="#img8" transform="matrix(1,0,0,1,109,-6)"/>
		<use id="shada_d copy" style="display: none" href="#img9" transform="matrix(1,0,0,1,129,1)"/>
		<use id="shada_d2 copy 3" style="display: none" href="#img10" transform="matrix(1,0,0,1,106,-1)"/>
		<use id="sukoon copy" style="display: none" href="#img11" transform="matrix(1,0,0,1,134,18)"/>
	</g>
	<g id="lam_start" style="display: none">
		<path id="لـ " fill="#000000" d="M172.79 245.08Q168.8 244.77 167.36 239.64L164.69 230.52Q162.75 222.11 169.82 220.26Q171.46 219.85 182.13 220.47Q192.79 220.98 203.25 220.47Q213.81 219.85 215.35 220.26Q220.58 221.59 220.68 227.44Q220.68 228.98 220.27 230.52L217.6 239.64Q216.07 244.67 212.17 245.08Q192.38 246.31 172.79 245.08ZM234.93 114.85L229.81 121.62Q238.42 183.55 236.06 206.73Q232.47 241.69 211.96 245.08Q206.74 245.9 206.02 238.72Q205.5 234 205.92 227.34Q206.33 220.57 211.96 219.95Q223.55 218.72 226.83 212.78Q226.63 207.75 215.04 120.9Q213.81 112.9 213.09 110.03Q210.94 104.8 213.2 100.39L218.53 89.93Q221.5 84.09 224.58 92.7Q227.65 101.32 234.11 106.75Q238.42 110.34 234.93 114.85Z" />
		<use id="fatha copy 2" style="display: none" href="#img1" transform="matrix(1,0,0,1,158,7)"/>
		<use id="fathax2 copy 2" style="display: none" href="#img2" transform="matrix(1,0,0,1,136,6)"/>
		<use id="kesra copy 2" style="display: none" href="#img1" transform="matrix(1,0,0,1,148,247)"/>
		<use id="kesrax2 copy 2" style="display: none" href="#img2" transform="matrix(1,0,0,1,124,257)"/>
		<use id="dama copy 2" style="display: none" href="#img3" transform="matrix(1,0,0,1,150,7)"/>
		<use id="damax2 copy" style="display: none" href="#img4" transform="matrix(1,0,0,1,133,-8)"/>
		<use id="shada_f copy 2" style="display: none" href="#img5" transform="matrix(1,0,0,1,141,-22)"/>
		<use id="shada_f2 copy 2" style="display: none" href="#img6" transform="matrix(1,0,0,1,159,-16)"/>
		<use id="shada_k copy 2" style="display: none" href="#img7" transform="matrix(1,0,0,1,133,-9)"/>
		<use id="shada_k2 copy 2" style="display: none" href="#img8" transform="matrix(1,0,0,1,131,-15)"/>
		<use id="shada_d copy 2" style="display: none" href="#img9" transform="matrix(1,0,0,1,141,1)"/>
		<use id="shada_d2 copy" style="display: none" href="#img10" transform="matrix(1,0,0,1,129,1)"/>
		<use id="sukoon copy 2" style="display: none" href="#img11" transform="matrix(1,0,0,1,156,8)"/>
		<use id="shada copy" style="display: none" href="#img12" transform="matrix(1,0,0,1,147,1)"/>
	</g>
	<g id="lam_end">
		<path id="ـل " fill="#000000" d="M215.33 111.31Q215.33 111.31 221.79 170.58Q227.13 218.98 244.35 222.06Q252.66 223.49 251.22 236.92Q250.4 244.41 247.02 246.36Q245.79 247.08 244.35 247.08Q231.02 247.08 220.56 232.93Q223.43 254.87 220.67 278.35Q218.51 296.4 207.85 304.5Q184.57 322.03 163.55 322.65Q142.63 323.16 131.56 310.65Q120.48 298.35 122.84 276.09Q124.48 260.61 140.17 236.21Q142.74 232.21 144.89 234.57Q146.94 236.92 144.79 240.1Q128.89 263.58 134.43 278.86Q140.68 295.99 171.65 294.14Q196.26 292.71 213.9 275.79L201.8 134.28Q201.29 127.11 203.03 122.8L209.18 108.14Q213.79 96.65 215.33 111.31ZM244.15 247.08Q240.15 246.77 238.71 241.64L236.05 232.52Q234.1 224.11 241.17 222.26Q242.81 221.85 253.48 222.47Q264.14 222.98 274.6 222.47Q285.16 221.85 286.7 222.26Q291.93 223.59 292.03 229.44Q292.03 230.98 291.62 232.52L288.96 241.64Q287.42 246.67 283.52 247.08Q263.73 248.31 244.15 247.08Z" />
		<use id="fatha copy 3" style="display: none" href="#img1" transform="matrix(1,0,0,1,104,41)"/>
		<use id="fathax2 copy 3" style="display: none" href="#img2" transform="matrix(1,0,0,1,89,40)"/>
		<use id="kesra copy 3" style="display: none" href="#img1" transform="matrix(1,0,0,1,118,303)"/>
		<use id="kesrax2 copy 3" style="display: none" href="#img2" transform="matrix(1,0,0,1,98,317)"/>
		<use id="dama copy 3" style="display: none" href="#img3" transform="matrix(1,0,0,1,106,41)"/>
		<use id="damax2 copy 2" style="display: none" href="#img4" transform="matrix(1,0,0,1,100,26)"/>
		<use id="shada_f copy 3" style="display: none" href="#img5" transform="matrix(1,0,0,1,105,17)"/>
		<use id="shada_f2 copy 3" style="display: none" href="#img6" transform="matrix(1,0,0,1,123,17)"/>
		<use id="shada_k copy 3" style="display: none" href="#img7" transform="matrix(1,0,0,1,96,25)"/>
		<use id="shada_k2 copy 3" style="display: none" href="#img8" transform="matrix(1,0,0,1,97,14)"/>
		<use id="shada_d copy 3" style="display: none" href="#img9" transform="matrix(1,0,0,1,119,17)"/>
		<use id="shada_d2 copy 2" style="display: none" href="#img10" transform="matrix(1,0,0,1,103,16)"/>
		<use id="sukoon copy 3" style="display: none" href="#img11" transform="matrix(1,0,0,1,113,42)"/>
		<use id="shada copy 2" style="display: none" href="#img12" transform="matrix(1,0,0,1,111,44)"/>
	</g>
</svg>