<svg xmlns="http://www.w3.org/2000/svg" viewBox="0 0 400 400" width="400" height="400">
		<defs>
		<g id="img1" transform="translate(0.000000,99.000000) scale(0.100000,-0.100000)" fill="#000000" stroke="none">
			<path d="M347 648 c-50 -48 -89 -131 -94 -203 -6 -74 24 -138 77 -166 51 -28 152 -26 210 4 172 86 82 397 -114 397 -37 0 -51 -6 -79 -32z m149 -133 c8 -11 13 -14 9 -7 -13 26 4 10 24 -22 31 -49 20 -66 -43 -68 -80 -2 -110 3 -128 19 -22 20 -22 35 -3 73 14 27 18 29 70 27 40 -2 59 -8 71 -22z"/>
		</g>
		<g id="img2" transform="translate(0.000000,99.000000) scale(0.100000,-0.100000)" fill="#000000" stroke="none">
			<path d="M347 648 c-50 -48 -89 -131 -94 -203 -6 -74 24 -138 77 -166 51 -28 152 -26 210 4 172 86 82 397 -114 397 -37 0 -51 -6 -79 -32z m149 -133 c8 -11 13 -14 9 -7 -13 26 4 10 24 -22 31 -49 20 -66 -43 -68 -80 -2 -110 3 -128 19 -22 20 -22 35 -3 73 14 27 18 29 70 27 40 -2 59 -8 71 -22z"/>
		</g>
		<g id="img3" transform="translate(0.000000,103.000000) scale(0.100000,-0.100000)" fill="#000000" stroke="none">
			<path d="M420 580 c-124 -77 -235 -152 -248 -166 -39 -45 -20 -134 26 -117 25 9 380 212 428 245 44 29 74 90 74 150 0 53 -40 37 -280 -112z"/>
		</g>
		<g id="img4" transform="translate(0.000000,92.000000) scale(0.100000,-0.100000)" fill="#000000" stroke="none">
			<path d="M742 748 c-61 -40 -160 -102 -219 -138 -92 -56 -111 -72 -130 -110 -13 -24 -23 -57 -23 -72 0 -45 36 -36 172 43 68 39 162 93 209 120 104 60 134 90 150 150 27 102 -10 103 -159 7z"/>
			<path d="M650 457 c-118 -79 -222 -152 -230 -161 -8 -11 -14 -40 -15 -70 0 -44 3 -51 20 -54 12 -1 108 51 230 126 204 125 211 129 238 182 15 29 27 69 27 87 0 60 -35 46 -270 -110z"/>
		</g>		
		<g id="img5" transform="translate(0.000000,123.000000) scale(0.100000,-0.100000)" fill="#000000" stroke="none">
			<path d="M560 881 c-145 -65 -199 -94 -209 -112 -18 -33 -8 -79 18 -79 36 0 413 136 422 153 5 9 11 40 12 69 2 50 1 53 -23 55 -14 1 -113 -38 -220 -86z"/>
			<path d="M764 652 c-16 -10 -30 -42 -38 -84 -8 -45 -29 -68 -62 -68 -26 0 -32 14 -36 85 -3 37 -5 40 -35 43 -30 3 -32 0 -52 -53 -42 -112 -58 -135 -97 -135 -29 0 -35 21 -28 96 7 63 6 64 -21 74 -38 15 -57 -5 -81 -83 -26 -86 -26 -187 2 -224 48 -64 137 -67 204 -7 37 34 40 35 62 20 13 -9 43 -16 69 -16 72 0 119 53 153 170 23 82 24 160 1 176 -21 16 -26 17 -41 6z"/>
		</g>		
		<g id="img6" transform="translate(0.000000,123.000000) scale(0.100000,-0.100000)" fill="#000000" stroke="none">
			<path d="M575 1061 c-72 -30 -369 -163 -385 -173 -40 -25 -34 -98 8 -98 37 0 388 143 410 167 27 29 31 97 6 107 -9 3 -16 6 -17 5 -1 0 -11 -4 -22 -8z"/>
			<path d="M390 814 c-107 -41 -199 -79 -206 -85 -14 -11 -24 -57 -17 -76 9 -22 42 -15 224 46 197 66 216 74 223 98 2 10 7 28 11 39 5 20 -16 55 -33 53 -4 0 -95 -34 -202 -75z"/>
			<path d="M583 652 c-7 -5 -23 -39 -35 -78 -22 -65 -25 -69 -55 -72 -36 -4 -40 5 -45 83 -3 37 -5 40 -33 40 -32 0 -35 -4 -80 -111 -49 -115 -119 -101 -96 19 9 49 1 69 -31 80 -45 16 -92 -90 -93 -210 0 -86 20 -120 82 -142 53 -19 108 -4 151 40 29 30 31 30 53 15 33 -23 104 -21 140 5 41 29 79 109 95 201 14 838 120 -21 132 -20 7 -17 7 -32 -2z"/>
		</g>
		<g id="img7" transform="translate(0.000000,103.000000) scale(0.100000,-0.100000)" fill="#000000" stroke="none">
			<path d="M420 580 c-124 -77 -235 -152 -248 -166 -39 -45 -20 -134 26 -117 25 9 380 212 428 245 44 29 74 90 74 150 0 53 -40 37 -280 -112z"/>
		</g>		
		<g id="img8" transform="translate(0.000000,92.000000) scale(0.100000,-0.100000)" fill="#000000" stroke="none">
			<path d="M742 748 c-61 -40 -160 -102 -219 -138 -92 -56 -111 -72 -130 -110 -13 -24 -23 -57 -23 -72 0 -45 36 -36 172 43 68 39 162 93 209 120 104 60 134 90 150 150 27 102 -10 103 -159 7z"/>
			<path d="M650 457 c-118 -79 -222 -152 -230 -161 -8 -11 -14 -40 -15 -70 0 -44 3 -51 20 -54 12 -1 108 51 230 126 204 125 211 129 238 182 15 29 27 69 27 87 0 60 -35 46 -270 -110z"/>
		</g>	
		<g id="img9" transform="translate(0.000000,107.000000) scale(0.100000,-0.100000)" fill="#000000" stroke="none">
			<path d="M842 845 c-7 -14 -12 -36 -12 -48 0 -12 -9 -37 -20 -54 -37 -61 -100 -32 -85 38 5 22 2 36 -11 50 -38 42 -67 18 -99 -79 -17 -52 -65 -112 -90 -112 -24 0 -30 22 -30 105 0 92 -12 103 -63 60 -62 -52 -89 -223 -47 -292 20 -34 76 -63 121 -63 31 0 80 24 115 56 24 23 27 24 55 9 74 -38 147 -9 199 79 31 53 62 207 49 244 -14 39 -66 44 -82 7z"/>
			<path d="M636 370 c-109 -49 -204 -94 -211 -100 -15 -13 -27 -64 -19 -85 10 -26 57 -17 247 50 102 36 190 65 196 65 20 0 40 46 43 100 3 55 3 55 -27 57 -19 1 -100 -29 -229 -87z"/>
		</g>
		<g id="img10" transform="translate(0.000000,107.000000) scale(0.100000,-0.100000)" fill="#000000" stroke="none">
			<path d="M806 875 c-8 -9 -18 -32 -22 -53 -14 -77 -46 -112 -85 -92 -15 8 -19 22 -19 58 0 54 -6 67 -36 76 -26 8 -47 -15 -64 -69 -39 -123 -102 -174 -130 -105 -10 23 -10 36 0 59 17 43 10 85 -17 89 -63 9 -107 -78 -108 -213 0 -61 4 -86 18 -107 19 -27 81 -58 118 -58 27 0 78 26 111 58 26 24 28 24 62 8 18 -9 51 -16 72 -16 32 0 45 7 84 48 53 55 79 122 87 227 5 59 3 74 -11 88 -21 21 -40 22 -60 2z"/>
			<path d="M705 484 c-66 -30 -156 -71 -200 -91 -95 -42 -102 -47 -110 -94 -9 -51 11 -66 68 -49 89 26 383 134 394 144 7 7 14 41 15 76 3 63 2 65 -22 67 -14 1 -79 -23 -145 -53z"/>
			<path d="M720 284 c-69 -30 -159 -68 -200 -85 -91 -37 -102 -47 -104 -96 -1 -34 2 -38 26 -41 23 -3 190 48 405 122 34 11 46 33 57 95 7 39 -7 61 -38 60 -11 0 -77 -25 -146 -55z"/>
		</g>
		<g id="img11" transform="translate(0.000000,98.000000) scale(0.100000,-0.100000)" fill="#000000" stroke="none">
			<path d="M585 912 c-71 -33 -144 -138 -145 -207 0 -23 12 -41 54 -81 l54 -51 -56 -57 c-31 -31 -100 -87 -154 -124 -106 -71 -124 -97 -93 -132 24 -27 39 -25 104 11 85 48 163 112 232 189 62 68 62 69 90 54 40 -20 45 -18 74 23 35 52 33 89 -5 111 -20 11 -28 22 -24 32 4 8 9 43 12 77 10 132 -50 197 -143 155z"/>
		</g>	
		<g id="img12" transform="translate(0.000000,100.000000) scale(0.100000,-0.100000)" fill="#000000" stroke="none">
			<path d="M415 830 c-46 -18 -145 -159 -145 -205 0 -24 45 -90 81 -118 l32 -25 -32 -40 c-35 -43 -129 -121 -201 -166 -97 -61 -124 -108 -79 -139 45 -32 149 31 300 180 l116 115 27 -17 c41 -27 70 -13 95 44 24 57 20 76 -21 97 -21 11 -28 20 -23 32 12 30 18 119 11 156 -4 19 -18 49 -32 66 -21 25 -33 30 -67 29 -23 0 -51 -4 -62 -9z"/>
			<path d="M794 817 c-46 -27 -76 -58 -109 -113 -53 -88 -44 -140 35 -206 l41 -34 -65 -66 c-36 -36 -98 -87 -138 -114 -101 -65 -128 -92 -128 -126 0 -32 30 -53 62 -42 59 18 155 89 260 192 114 111 119 115 137 98 30 -27 62 -16 88 29 32 56 30 82 -8 103 -26 15 -29 21 -24 47 22 105 13 171 -31 219 -27 29 -82 35 -120 13z"/>
		</g>
		<g id="img13" transform="translate(0.000000,123.000000) scale(0.100000,-0.100000)" fill="#000000" stroke="none">
			<path d="M434 1188 c-103 -95 -116 -196 -35 -259 l32 -25 -68 -66 c-37 -36 -87 -84 -111 -107 -47 -44 -52 -74 -14 -79 36 -5 102 40 186 128 73 76 80 81 103 71 38 -17 52 -13 73 22 28 45 26 81 -5 95 -29 13 -29 14 -10 67 26 72 16 164 -19 187 -6 4 -28 8 -49 8 -30 0 -46 -8 -83 -42z"/>
			<path d="M643 645 c-12 -8 -24 -31 -28 -52 -12 -64 -32 -93 -65 -93 -25 0 -30 4 -36 35 -3 19 -3 42 0 51 8 22 -11 44 -39 44 -28 0 -39 -13 -55 -65 -19 -61 -50 -112 -76 -123 -36 -17 -48 7 -41 83 6 61 5 66 -18 81 -46 30 -78 -17 -110 -164 -34 -158 119 -250 236 -141 29 27 33 28 52 14 12 -8 43 -15 68 -15 60 0 103 34 134 105 25 55 51 195 42 219 -10 26 -42 37 -64 21z"/>
		</g>
		<g id="img14" transform="translate(0.000000,100.000000) scale(0.100000,-0.100000)" fill="#000000" stroke="none">
			<path d="M755 981 c-65 -40 -135 -146 -135 -203 0 -37 23 -81 56 -107 l26 -20 -37 -45 c-20 -25 -68 -70 -106 -101 -75 -60 -95 -99 -65 -121 20 -14 18 -28 -21 -115 -28 -64 -62 -89 -88 -63 -17 17 -18 30 -6 93 7 36 6 46 -10 62 -23 23 -31 24 -57 2 -30 -27 -56 -118 -57 -200 0 -86 20 -120 82 -142 53 -19 108 -4 151 40 29 30 31 30 53 15 32 -22 97 -20 136 4 43 26 82 106 99 202 14 82 8 120 -20 131 -30 12 -45 -5 -68 -76 -21 -66 -26 -72 -52 -75 -36 -4 -46 10 -46 70 0 26 -5 50 -12 54 -7 5 -5 11 8 21 10 7 61 55 111 105 88 87 94 91 118 80 40 -18 54 -15 75 21 27 44 25 77 -6 102 l-27 21 18 70 c21 82 15 135 -20 170 -29 29 -60 30 -100 5z"/>
			<path d="M489 970 c-20 -11 -52 -41 -72 -67 -85 -118 -88 -162 -14 -240 l30 -32 -38 -43 c-21 -24 -70 -70 -109 -103 -70 -60 -92 -99 -66 -115 35 -21 144 51 233 153 l51 58 52 -7 53 -6 20 41 c27 53 27 61 -9 91 l-29 25 20 70 c17 60 18 76 8 113 -12 44 -49 82 -78 82 -9 -1 -32 -10 -52 -20z"/>
		</g>
	</defs>
	<style>
		tspan { white-space:pre }
		.shp0 { fill: #ff0000 } 
	</style>
	<g id="red_guides">
		<path id="Shape 1" class="shp0" d="M0.49 251.5L0.51 246.5L407.51 248.5L407.49 253.5L0.49 251.5Z" />
		<path id="Shape 2" class="shp0" d="M100 -0.01L103 0.01L100 400.01L97 399.99L100 -0.01Z" />
		<path id="Shape 2 copy" class="shp0" d="M200 -0.01L203 0.01L200 400.01L197 399.99L200 -0.01Z" />
		<path id="Shape 2 copy 2" class="shp0" d="M300 -0.01L303 0.01L300 400.01L297 399.99L300 -0.01Z" />
	</g>
	<g id="meem_byitsself" style="display: none">
		<path id="م " fill="#000000" d="M185.71 215.75Q193.4 212.47 204.06 211.14Q196.58 204.78 192.38 205.91Q186.63 207.45 185.71 215.75ZM173.82 222.11Q174.43 206.93 179.97 195.55Q199.45 155.77 234.52 203.24Q237.08 207.45 236.67 210.01Q233.7 228.06 232.57 230.72Q230.62 235.85 225.5 234.93Q193.61 227.44 175.76 247.44Q182.94 275.33 187.97 299.53Q197.09 344.44 194.22 354.79Q192.79 359.82 189.61 360.33Q184.89 360.95 184.07 352.13Q182.43 333.16 175.46 306.7Q162.84 258.72 164.79 243.95Q166.74 229.18 173.82 222.11Z" />
		<use id="fatha" style="display: none" href="#img1" transform="matrix(1,0,0,1,130,105)"/>
		<use id="fathax2" style="display: none" href="#img2" transform="matrix(1,0,0,1,107,98)"/>
		<use id="kesra" style="display: none" href="#img1" transform="matrix(1,0,0,1,185,238)"/>
		<use id="kesrax2" style="display: none" href="#img2" transform="matrix(1,0,0,1,163,250)"/>
		<use id="dama" style="display: none" href="#img3" transform="matrix(1,0,0,1,114,97)"/>
		<use id="damax2" style="display: none" href="#img4" transform="matrix(1,0,0,1,100,82)"/>
		<use id="shada_f" style="display: none" href="#img5" transform="matrix(1,0,0,1,105,73)"/>
		<use id="shada_f2" style="display: none" href="#img6" transform="matrix(1,0,0,1,129,73)"/>
		<use id="shada_k" style="display: none" href="#img7" transform="matrix(1,0,0,1,101,81)"/>
		<use id="shada_k2" style="display: none" href="#img8" transform="matrix(1,0,0,1,103,70)"/>
		<use id="shada_d" style="display: none" href="#img9" transform="matrix(1,0,0,1,129,73)"/>
		<use id="shada_d2" style="display: none" href="#img10" transform="matrix(1,0,0,1,109,72)"/>
		<use id="sukoon" style="display: none" href="#img11" transform="matrix(1,0,0,1,137,98)"/>
	</g>
	<g id="meem_middle" style="display: none">
		<path id="ـمـ " fill="#000000" d="M112.79 247.08Q108.8 246.77 107.36 241.64L104.69 232.52Q102.75 224.11 109.82 222.26Q111.46 221.85 122.13 222.47Q132.79 222.98 143.25 222.47Q153.81 221.85 155.35 222.26Q160.58 223.59 160.68 229.44Q160.68 230.98 160.27 232.52L157.6 241.64Q156.07 246.67 152.17 247.08Q132.38 248.31 112.79 247.08ZM197.9 207.09Q197.59 206.47 196.47 206.68Q190.01 208.32 187.44 211.91Q186.52 213.24 187.65 214.26Q195.13 220.52 205.7 223.8Q208.57 224.62 207.03 222.67Q202.52 216.93 197.9 207.09ZM197.7 188.73Q201.18 187.4 203.23 190.27Q210.72 201.24 222.51 210.88Q234.41 220.52 249.38 221.95Q256.14 222.67 256.55 230.26Q256.45 240.72 254.4 243.9Q252.35 246.97 249.38 247.08Q235.94 246.97 222.41 238.87Q221.59 245.74 220.67 247.08Q217.49 251.59 213.18 251.49Q189.8 249.64 173.5 231.7Q162.83 246.56 151.96 247.08Q147.35 247.18 145.92 241.44Q143.15 230.46 146.53 225.44Q149.09 222.26 151.96 221.95Q169.91 221.34 173.4 213.75Q183.34 193.96 197.7 188.73ZM249.17 247.08Q245.17 246.77 243.74 241.64L241.07 232.52Q239.12 224.11 246.2 222.26Q247.84 221.85 258.5 222.47Q269.17 222.98 279.63 222.47Q290.19 221.85 291.73 222.26Q296.96 223.59 297.06 229.44Q297.06 230.98 296.65 232.52L293.98 241.64Q292.44 246.67 288.55 247.08Q268.76 248.31 249.17 247.08Z" />
		<use id="fatha copy" style="display: none" href="#img1" transform="matrix(1,0,0,1,130,105)"/>
		<use id="fathax2 copy" style="display: none" href="#img2" transform="matrix(1,0,0,1,108,104)"/>
		<use id="kesra copy" style="display: none" href="#img1" transform="matrix(1,0,0,1,160,239)"/>
		<use id="kesrax2 copy" style="display: none" href="#img2" transform="matrix(1,0,0,1,133,251)"/>
		<use id="dama copy" style="display: none" href="#img3" transform="matrix(1,0,0,1,137,105)"/>
		<use id="damax2 copy 3" style="display: none" href="#img4" transform="matrix(1,0,0,1,114,90)"/>
		<use id="shada_f copy" style="display: none" href="#img5" transform="matrix(1,0,0,1,117,81)"/>
		<use id="shada_f2 copy" style="display: none" href="#img6" transform="matrix(1,0,0,1,135,80)"/>
		<use id="shada_k copy" style="display: none" href="#img7" transform="matrix(1,0,0,1,107,86)"/>
		<use id="shada_k2 copy" style="display: none" href="#img8" transform="matrix(1,0,0,1,109,78)"/>
		<use id="shada_d copy" style="display: none" href="#img9" transform="matrix(1,0,0,1,129,81)"/>
		<use id="shada_d2 copy 3" style="display: none" href="#img10" transform="matrix(1,0,0,1,109,80)"/>
		<use id="sukoon copy" style="display: none" href="#img11" transform="matrix(1,0,0,1,137,106)"/>
	</g>
	<g id="meem_start" style="display: none">
		<path id="مـ " fill="#000000" d="M150.79 246.08Q146.8 245.77 145.36 240.64L142.69 231.52Q140.75 223.11 147.82 221.26Q149.46 220.85 160.13 221.47Q170.79 221.98 181.25 221.47Q191.81 220.85 193.35 221.26Q198.58 222.59 198.68 228.44Q198.68 229.98 198.27 231.52L195.6 240.64Q194.07 245.67 190.17 246.08Q170.38 247.31 150.79 246.08ZM223.8 196.75Q231.29 204.04 242.67 206.5Q242.98 197.47 236.62 194.5Q230.37 191.53 223.8 196.75ZM238.88 173.07Q254.46 173.27 260.41 211.73Q260.92 215.21 259.08 217.57L248.72 231Q245.95 234.59 241.34 233.57Q224.62 229.46 213.45 218.49Q204.73 245.77 189.96 246.08Q185.86 246.18 183.92 240.13Q182.07 233.98 181.97 228.95Q181.86 223.83 186.38 221.77Q188.02 221.06 189.86 220.95Q201.24 220.44 208.93 209.26Q211.29 205.88 221.44 187.73Q229.65 172.97 238.88 173.07Z" />
		<use id="fatha copy 2" style="display: none" href="#img1" transform="matrix(1,0,0,1,158,82)"/>
		<use id="fathax2 copy 2" style="display: none" href="#img2" transform="matrix(1,0,0,1,136,81)"/>
		<use id="kesra copy 2" style="display: none" href="#img1" transform="matrix(1,0,0,1,172,239)"/>
		<use id="kesrax2 copy 2" style="display: none" href="#img2" transform="matrix(1,0,0,1,148,249)"/>
		<use id="dama copy 2" style="display: none" href="#img3" transform="matrix(1,0,0,1,144,82)"/>
		<use id="damax2 copy" style="display: none" href="#img4" transform="matrix(1,0,0,1,137,67)"/>
		<use id="shada_f copy 2" style="display: none" href="#img5" transform="matrix(1,0,0,1,144,58)"/>
		<use id="shada_f2 copy 2" style="display: none" href="#img6" transform="matrix(1,0,0,1,162,58)"/>
		<use id="shada_k copy 2" style="display: none" href="#img7" transform="matrix(1,0,0,1,136,66)"/>
		<use id="shada_k2 copy 2" style="display: none" href="#img8" transform="matrix(1,0,0,1,131,55)"/>
		<use id="shada_d copy 2" style="display: none" href="#img9" transform="matrix(1,0,0,1,144,58)"/>
		<use id="shada_d2 copy" style="display: none" href="#img10" transform="matrix(1,0,0,1,132,57)"/>
		<use id="sukoon copy 2" style="display: none" href="#img11" transform="matrix(1,0,0,1,156,83)"/>
		<use id="shada copy" style="display: none" href="#img12" transform="matrix(1,0,0,1,138,85)"/>
	</g>
	<g id="meem_end">
		<path id="ـم " fill="#000000" d="M174.22 198.29Q192.37 219.72 226.72 220.95Q236.97 221.36 234.82 233.67Q232.77 245.97 226.72 246.08Q208.26 246.28 193.39 239.21Q193.29 259.2 184.27 266.48Q180.06 269.76 176.06 266.28Q163.86 255.3 160.99 234.39Q149.4 236.03 140.48 245.26Q139.46 249.56 142.53 270.28Q153.91 345.95 151.15 358.46Q149.3 366.46 144.99 366.46Q140.48 366.35 140.28 357.13Q139.87 342.46 132.48 297.96Q125.1 253.46 132.89 233.98Q140.69 214.49 163.76 204.14Q168.27 191.22 174.22 198.29ZM226.51 246.08Q222.51 245.77 221.08 240.64L218.41 231.52Q216.46 223.11 223.54 221.26Q225.18 220.85 235.84 221.47Q246.51 221.98 256.97 221.47Q267.53 220.85 269.07 221.26Q274.29 222.59 274.4 228.44Q274.4 229.98 273.99 231.52L271.32 240.64Q269.78 245.67 265.89 246.08Q246.1 247.31 226.51 246.08Z" />
		<use id="fatha copy 3" style="display: none" href="#img1" transform="matrix(1,0,0,1,93,102)"/>
		<use id="fathax2 copy 3" style="display: none" href="#img2" transform="matrix(1,0,0,1,78,101)"/>
		<use id="kesra copy 3" style="display: none" href="#img1" transform="matrix(1,0,0,1,149,266)"/>
		<use id="kesrax2 copy 3" style="display: none" href="#img2" transform="matrix(1,0,0,1,127,271)"/>
		<use id="dama copy 3" style="display: none" href="#img3" transform="matrix(1,0,0,1,106,102)"/>
		<use id="damax2 copy 2" style="display: none" href="#img4" transform="matrix(1,0,0,1,100,87)"/>
		<use id="shada_f copy 3" style="display: none" href="#img5" transform="matrix(1,0,0,1,105,78)"/>
		<use id="shada_f2 copy 3" style="display: none" href="#img6" transform="matrix(1,0,0,1,114,78)"/>
		<use id="shada_k copy 3" style="display: none" href="#img7" transform="matrix(1,0,0,1,84,86)"/>
		<use id="shada_k2 copy 3" style="display: none" href="#img8" transform="matrix(1,0,0,1,88,75)"/>
		<use id="shada_d copy 3" style="display: none" href="#img9" transform="matrix(1,0,0,1,100,78)"/>
		<use id="shada_d2 copy 2" style="display: none" href="#img10" transform="matrix(1,0,0,1,86,77)"/>
		<use id="sukoon copy 3" style="display: none" href="#img11" transform="matrix(1,0,0,1,98,103)"/>
		<use id="shada copy 2" style="display: none" href="#img12" transform="matrix(1,0,0,1,89,105)"/>
	</g>
</svg>