<svg xmlns="http://www.w3.org/2000/svg" viewBox="0 0 400 400" width="400" height="400">
		<defs>
		<g id="img1" transform="translate(0.000000,99.000000) scale(0.100000,-0.100000)" fill="#000000" stroke="none">
			<path d="M347 648 c-50 -48 -89 -131 -94 -203 -6 -74 24 -138 77 -166 51 -28 152 -26 210 4 172 86 82 397 -114 397 -37 0 -51 -6 -79 -32z m149 -133 c8 -11 13 -14 9 -7 -13 26 4 10 24 -22 31 -49 20 -66 -43 -68 -80 -2 -110 3 -128 19 -22 20 -22 35 -3 73 14 27 18 29 70 27 40 -2 59 -8 71 -22z"/>
		</g>
		<g id="img2" transform="translate(0.000000,99.000000) scale(0.100000,-0.100000)" fill="#000000" stroke="none">
			<path d="M347 648 c-50 -48 -89 -131 -94 -203 -6 -74 24 -138 77 -166 51 -28 152 -26 210 4 172 86 82 397 -114 397 -37 0 -51 -6 -79 -32z m149 -133 c8 -11 13 -14 9 -7 -13 26 4 10 24 -22 31 -49 20 -66 -43 -68 -80 -2 -110 3 -128 19 -22 20 -22 35 -3 73 14 27 18 29 70 27 40 -2 59 -8 71 -22z"/>
		</g>
		<g id="img3" transform="translate(0.000000,103.000000) scale(0.100000,-0.100000)" fill="#000000" stroke="none">
			<path d="M420 580 c-124 -77 -235 -152 -248 -166 -39 -45 -20 -134 26 -117 25 9 380 212 428 245 44 29 74 90 74 150 0 53 -40 37 -280 -112z"/>
		</g>
		<g id="img4" transform="translate(0.000000,92.000000) scale(0.100000,-0.100000)" fill="#000000" stroke="none">
			<path d="M742 748 c-61 -40 -160 -102 -219 -138 -92 -56 -111 -72 -130 -110 -13 -24 -23 -57 -23 -72 0 -45 36 -36 172 43 68 39 162 93 209 120 104 60 134 90 150 150 27 102 -10 103 -159 7z"/>
			<path d="M650 457 c-118 -79 -222 -152 -230 -161 -8 -11 -14 -40 -15 -70 0 -44 3 -51 20 -54 12 -1 108 51 230 126 204 125 211 129 238 182 15 29 27 69 27 87 0 60 -35 46 -270 -110z"/>
		</g>		
		<g id="img5" transform="translate(0.000000,123.000000) scale(0.100000,-0.100000)" fill="#000000" stroke="none">
			<path d="M560 881 c-145 -65 -199 -94 -209 -112 -18 -33 -8 -79 18 -79 36 0 413 136 422 153 5 9 11 40 12 69 2 50 1 53 -23 55 -14 1 -113 -38 -220 -86z"/>
			<path d="M764 652 c-16 -10 -30 -42 -38 -84 -8 -45 -29 -68 -62 -68 -26 0 -32 14 -36 85 -3 37 -5 40 -35 43 -30 3 -32 0 -52 -53 -42 -112 -58 -135 -97 -135 -29 0 -35 21 -28 96 7 63 6 64 -21 74 -38 15 -57 -5 -81 -83 -26 -86 -26 -187 2 -224 48 -64 137 -67 204 -7 37 34 40 35 62 20 13 -9 43 -16 69 -16 72 0 119 53 153 170 23 82 24 160 1 176 -21 16 -26 17 -41 6z"/>
		</g>		
		<g id="img6" transform="translate(0.000000,123.000000) scale(0.100000,-0.100000)" fill="#000000" stroke="none">
			<path d="M575 1061 c-72 -30 -369 -163 -385 -173 -40 -25 -34 -98 8 -98 37 0 388 143 410 167 27 29 31 97 6 107 -9 3 -16 6 -17 5 -1 0 -11 -4 -22 -8z"/>
			<path d="M390 814 c-107 -41 -199 -79 -206 -85 -14 -11 -24 -57 -17 -76 9 -22 42 -15 224 46 197 66 216 74 223 98 2 10 7 28 11 39 5 20 -16 55 -33 53 -4 0 -95 -34 -202 -75z"/>
			<path d="M583 652 c-7 -5 -23 -39 -35 -78 -22 -65 -25 -69 -55 -72 -36 -4 -40 5 -45 83 -3 37 -5 40 -33 40 -32 0 -35 -4 -80 -111 -49 -115 -119 -101 -96 19 9 49 1 69 -31 80 -45 16 -92 -90 -93 -210 0 -86 20 -120 82 -142 53 -19 108 -4 151 40 29 30 31 30 53 15 33 -23 104 -21 140 5 41 29 79 109 95 201 14 838 120 -21 132 -20 7 -17 7 -32 -2z"/>
		</g>
		<g id="img7" transform="translate(0.000000,103.000000) scale(0.100000,-0.100000)" fill="#000000" stroke="none">
			<path d="M420 580 c-124 -77 -235 -152 -248 -166 -39 -45 -20 -134 26 -117 25 9 380 212 428 245 44 29 74 90 74 150 0 53 -40 37 -280 -112z"/>
		</g>		
		<g id="img8" transform="translate(0.000000,92.000000) scale(0.100000,-0.100000)" fill="#000000" stroke="none">
			<path d="M742 748 c-61 -40 -160 -102 -219 -138 -92 -56 -111 -72 -130 -110 -13 -24 -23 -57 -23 -72 0 -45 36 -36 172 43 68 39 162 93 209 120 104 60 134 90 150 150 27 102 -10 103 -159 7z"/>
			<path d="M650 457 c-118 -79 -222 -152 -230 -161 -8 -11 -14 -40 -15 -70 0 -44 3 -51 20 -54 12 -1 108 51 230 126 204 125 211 129 238 182 15 29 27 69 27 87 0 60 -35 46 -270 -110z"/>
		</g>	
		<g id="img9" transform="translate(0.000000,107.000000) scale(0.100000,-0.100000)" fill="#000000" stroke="none">
			<path d="M842 845 c-7 -14 -12 -36 -12 -48 0 -12 -9 -37 -20 -54 -37 -61 -100 -32 -85 38 5 22 2 36 -11 50 -38 42 -67 18 -99 -79 -17 -52 -65 -112 -90 -112 -24 0 -30 22 -30 105 0 92 -12 103 -63 60 -62 -52 -89 -223 -47 -292 20 -34 76 -63 121 -63 31 0 80 24 115 56 24 23 27 24 55 9 74 -38 147 -9 199 79 31 53 62 207 49 244 -14 39 -66 44 -82 7z"/>
			<path d="M636 370 c-109 -49 -204 -94 -211 -100 -15 -13 -27 -64 -19 -85 10 -26 57 -17 247 50 102 36 190 65 196 65 20 0 40 46 43 100 3 55 3 55 -27 57 -19 1 -100 -29 -229 -87z"/>
		</g>
		<g id="img10" transform="translate(0.000000,107.000000) scale(0.100000,-0.100000)" fill="#000000" stroke="none">
			<path d="M806 875 c-8 -9 -18 -32 -22 -53 -14 -77 -46 -112 -85 -92 -15 8 -19 22 -19 58 0 54 -6 67 -36 76 -26 8 -47 -15 -64 -69 -39 -123 -102 -174 -130 -105 -10 23 -10 36 0 59 17 43 10 85 -17 89 -63 9 -107 -78 -108 -213 0 -61 4 -86 18 -107 19 -27 81 -58 118 -58 27 0 78 26 111 58 26 24 28 24 62 8 18 -9 51 -16 72 -16 32 0 45 7 84 48 53 55 79 122 87 227 5 59 3 74 -11 88 -21 21 -40 22 -60 2z"/>
			<path d="M705 484 c-66 -30 -156 -71 -200 -91 -95 -42 -102 -47 -110 -94 -9 -51 11 -66 68 -49 89 26 383 134 394 144 7 7 14 41 15 76 3 63 2 65 -22 67 -14 1 -79 -23 -145 -53z"/>
			<path d="M720 284 c-69 -30 -159 -68 -200 -85 -91 -37 -102 -47 -104 -96 -1 -34 2 -38 26 -41 23 -3 190 48 405 122 34 11 46 33 57 95 7 39 -7 61 -38 60 -11 0 -77 -25 -146 -55z"/>
		</g>
		<g id="img11" transform="translate(0.000000,98.000000) scale(0.100000,-0.100000)" fill="#000000" stroke="none">
			<path d="M585 912 c-71 -33 -144 -138 -145 -207 0 -23 12 -41 54 -81 l54 -51 -56 -57 c-31 -31 -100 -87 -154 -124 -106 -71 -124 -97 -93 -132 24 -27 39 -25 104 11 85 48 163 112 232 189 62 68 62 69 90 54 40 -20 45 -18 74 23 35 52 33 89 -5 111 -20 11 -28 22 -24 32 4 8 9 43 12 77 10 132 -50 197 -143 155z"/>
		</g>	
		<g id="img12" transform="translate(0.000000,100.000000) scale(0.100000,-0.100000)" fill="#000000" stroke="none">
			<path d="M415 830 c-46 -18 -145 -159 -145 -205 0 -24 45 -90 81 -118 l32 -25 -32 -40 c-35 -43 -129 -121 -201 -166 -97 -61 -124 -108 -79 -139 45 -32 149 31 300 180 l116 115 27 -17 c41 -27 70 -13 95 44 24 57 20 76 -21 97 -21 11 -28 20 -23 32 12 30 18 119 11 156 -4 19 -18 49 -32 66 -21 25 -33 30 -67 29 -23 0 -51 -4 -62 -9z"/>
			<path d="M794 817 c-46 -27 -76 -58 -109 -113 -53 -88 -44 -140 35 -206 l41 -34 -65 -66 c-36 -36 -98 -87 -138 -114 -101 -65 -128 -92 -128 -126 0 -32 30 -53 62 -42 59 18 155 89 260 192 114 111 119 115 137 98 30 -27 62 -16 88 29 32 56 30 82 -8 103 -26 15 -29 21 -24 47 22 105 13 171 -31 219 -27 29 -82 35 -120 13z"/>
		</g>
		<g id="img13" transform="translate(0.000000,123.000000) scale(0.100000,-0.100000)" fill="#000000" stroke="none">
			<path d="M434 1188 c-103 -95 -116 -196 -35 -259 l32 -25 -68 -66 c-37 -36 -87 -84 -111 -107 -47 -44 -52 -74 -14 -79 36 -5 102 40 186 128 73 76 80 81 103 71 38 -17 52 -13 73 22 28 45 26 81 -5 95 -29 13 -29 14 -10 67 26 72 16 164 -19 187 -6 4 -28 8 -49 8 -30 0 -46 -8 -83 -42z"/>
			<path d="M643 645 c-12 -8 -24 -31 -28 -52 -12 -64 -32 -93 -65 -93 -25 0 -30 4 -36 35 -3 19 -3 42 0 51 8 22 -11 44 -39 44 -28 0 -39 -13 -55 -65 -19 -61 -50 -112 -76 -123 -36 -17 -48 7 -41 83 6 61 5 66 -18 81 -46 30 -78 -17 -110 -164 -34 -158 119 -250 236 -141 29 27 33 28 52 14 12 -8 43 -15 68 -15 60 0 103 34 134 105 25 55 51 195 42 219 -10 26 -42 37 -64 21z"/>
		</g>
		<g id="img14" transform="translate(0.000000,100.000000) scale(0.100000,-0.100000)" fill="#000000" stroke="none">
			<path d="M755 981 c-65 -40 -135 -146 -135 -203 0 -37 23 -81 56 -107 l26 -20 -37 -45 c-20 -25 -68 -70 -106 -101 -75 -60 -95 -99 -65 -121 20 -14 18 -28 -21 -115 -28 -64 -62 -89 -88 -63 -17 17 -18 30 -6 93 7 36 6 46 -10 62 -23 23 -31 24 -57 2 -30 -27 -56 -118 -57 -200 0 -86 20 -120 82 -142 53 -19 108 -4 151 40 29 30 31 30 53 15 32 -22 97 -20 136 4 43 26 82 106 99 202 14 82 8 120 -20 131 -30 12 -45 -5 -68 -76 -21 -66 -26 -72 -52 -75 -36 -4 -46 10 -46 70 0 26 -5 50 -12 54 -7 5 -5 11 8 21 10 7 61 55 111 105 88 87 94 91 118 80 40 -18 54 -15 75 21 27 44 25 77 -6 102 l-27 21 18 70 c21 82 15 135 -20 170 -29 29 -60 30 -100 5z"/>
			<path d="M489 970 c-20 -11 -52 -41 -72 -67 -85 -118 -88 -162 -14 -240 l30 -32 -38 -43 c-21 -24 -70 -70 -109 -103 -70 -60 -92 -99 -66 -115 35 -21 144 51 233 153 l51 58 52 -7 53 -6 20 41 c27 53 27 61 -9 91 l-29 25 20 70 c17 60 18 76 8 113 -12 44 -49 82 -78 82 -9 -1 -32 -10 -52 -20z"/>
		</g>
	</defs>
	<style>
		tspan { white-space:pre }
		.shp0 { fill: #ff0000 } 
	</style>
	<g id="red_guides">
		<path id="Shape 1" class="shp0" d="M0.49 251.5L0.51 246.5L407.51 248.5L407.49 253.5L0.49 251.5Z" />
		<path id="Shape 2" class="shp0" d="M100 -0.01L103 0.01L100 400.01L97 399.99L100 -0.01Z" />
		<path id="Shape 2 copy" class="shp0" d="M200 -0.01L203 0.01L200 400.01L197 399.99L200 -0.01Z" />
		<path id="Shape 2 copy 2" class="shp0" d="M300 -0.01L303 0.01L300 400.01L297 399.99L300 -0.01Z" />
	</g>
	<g id="noun_byitsself" style="display: none">
		<path id="ن " fill="#000000" d="M233.77 212.92Q249.67 244.61 244.85 283.78Q243.62 293.52 238.08 302.03Q224.75 322.33 195.32 325.51Q174.91 327.66 162.92 316.38Q151.02 305.1 151.43 286.44Q151.84 267.16 163.53 250.04Q165.99 246.45 167.84 248.19Q169.79 249.94 167.74 253.53Q156.46 273.62 163.94 286.13Q171.12 298.23 193.88 298.03Q221.57 297.82 237.46 281.11Q236.44 262.55 219.83 234.66Q217.57 230.87 218.7 228.2L226.49 210.56Q229.26 204 233.77 212.92ZM179.53 195.18L189.68 180.01Q190.91 178.26 193.27 178.98Q201.88 182.06 208.65 188Q210.39 189.75 209.26 191.8L199.22 207.69Q197.58 209.84 195.42 208.2Q193.27 206.46 180.25 198.67Q178.09 197.33 179.53 195.18Z" />
		<use id="fatha" style="display: none" href="#img1" transform="matrix(1,0,0,1,130,96)"/>
		<use id="fathax2" style="display: none" href="#img2" transform="matrix(1,0,0,1,107,98)"/>
		<use id="kesra" style="display: none" href="#img1" transform="matrix(1,0,0,1,158,306)"/>
		<use id="kesrax2" style="display: none" href="#img2" transform="matrix(1,0,0,1,136,318)"/>
		<use id="dama" style="display: none" href="#img3" transform="matrix(1,0,0,1,114,97)"/>
		<use id="damax2" style="display: none" href="#img4" transform="matrix(1,0,0,1,100,82)"/>
		<use id="shada_f" style="display: none" href="#img5" transform="matrix(1,0,0,1,105,73)"/>
		<use id="shada_f2" style="display: none" href="#img6" transform="matrix(1,0,0,1,129,73)"/>
		<use id="shada_k" style="display: none" href="#img7" transform="matrix(1,0,0,1,101,81)"/>
		<use id="shada_k2" style="display: none" href="#img8" transform="matrix(1,0,0,1,103,70)"/>
		<use id="shada_d" style="display: none" href="#img9" transform="matrix(1,0,0,1,129,73)"/>
		<use id="shada_d2" style="display: none" href="#img10" transform="matrix(1,0,0,1,109,72)"/>
		<use id="sukoon" style="display: none" href="#img11" transform="matrix(1,0,0,1,131,95)"/>
	</g>
	<g id="noun_middle" style="display: none">
		<path id="ـنـ " fill="#000000" d="M136.79 247.08Q132.8 246.77 131.36 241.64L128.69 232.52Q126.75 224.11 133.82 222.26Q135.46 221.85 146.13 222.47Q156.79 222.98 167.25 222.47Q177.81 221.85 179.35 222.26Q184.58 223.59 184.68 229.44Q184.68 230.98 184.27 232.52L181.6 241.64Q180.07 246.67 176.17 247.08Q156.38 248.31 136.79 247.08ZM214.11 213.65Q220.36 221.54 227.23 222.06Q232.98 222.57 234 226.36Q234.62 229.03 233.8 235.18Q233.08 241.33 231.64 244.21Q230.31 246.97 227.23 247.08Q215.03 247.08 204.47 233.75Q191.55 247.08 175.96 247.08Q171.45 246.97 170.33 241.44L168.48 232.93Q167.76 229.44 170.02 225.85Q172.27 222.26 175.96 221.95Q200.88 220.11 206.62 209.65Q208.37 206.47 210.62 206.47Q213.7 206.47 213.8 209.96Q214.01 213.34 214.11 213.65ZM186.73 156.84L196.88 141.67Q198.11 139.92 200.47 140.64Q209.08 143.72 215.85 149.66Q217.6 151.41 216.47 153.46L206.42 169.35Q204.78 171.5 202.63 169.86Q200.47 168.12 187.45 160.33Q185.3 159 186.73 156.84ZM227.03 247.08Q223.03 246.77 221.59 241.64L218.93 232.52Q216.98 224.11 224.06 222.26Q225.7 221.85 236.36 222.47Q247.02 222.98 257.48 222.47Q268.04 221.85 269.58 222.26Q274.81 223.59 274.92 229.44Q274.92 230.98 274.5 232.52L271.84 241.64Q270.3 246.67 266.4 247.08Q246.61 248.31 227.03 247.08Z" />
		<use id="fatha copy" style="display: none" href="#img1" transform="matrix(1,0,0,1,130,54)"/>
		<use id="fathax2 copy" style="display: none" href="#img2" transform="matrix(1,0,0,1,108,53)"/>
		<use id="kesra copy" style="display: none" href="#img1" transform="matrix(1,0,0,1,160,239)"/>
		<use id="kesrax2 copy" style="display: none" href="#img2" transform="matrix(1,0,0,1,133,251)"/>
		<use id="dama copy" style="display: none" href="#img3" transform="matrix(1,0,0,1,123,54)"/>
		<use id="damax2 copy 3" style="display: none" href="#img4" transform="matrix(1,0,0,1,106,39)"/>
		<use id="shada_f copy" style="display: none" href="#img5" transform="matrix(1,0,0,1,117,30)"/>
		<use id="shada_f2 copy" style="display: none" href="#img6" transform="matrix(1,0,0,1,135,30)"/>
		<use id="shada_k copy" style="display: none" href="#img7" transform="matrix(1,0,0,1,107,38)"/>
		<use id="shada_k2 copy" style="display: none" href="#img8" transform="matrix(1,0,0,1,109,27)"/>
		<use id="shada_d copy" style="display: none" href="#img9" transform="matrix(1,0,0,1,129,30)"/>
		<use id="shada_d2 copy 3" style="display: none" href="#img10" transform="matrix(1,0,0,1,109,29)"/>
		<use id="sukoon copy" style="display: none" href="#img11" transform="matrix(1,0,0,1,137,55)"/>
	</g>
	<g id="noun_start" style="display: none">
		<path id="نـ " fill="#000000" d="M168.79 245.08Q164.8 244.77 163.36 239.64L160.69 230.52Q158.75 222.11 165.82 220.26Q167.46 219.85 178.13 220.47Q188.79 220.98 199.25 220.47Q209.81 219.85 211.35 220.26Q216.58 221.59 216.68 227.44Q216.68 228.98 216.27 230.52L213.6 239.64Q212.07 244.67 208.17 245.08Q188.38 246.31 168.79 245.08ZM218.73 197.29L224.68 184.27Q227.86 177.3 230.22 181.5Q240.47 199.24 234.93 222.21Q229.5 245.08 207.96 245.08Q203.66 245.08 201.81 238.1Q200.07 231.03 200.17 226.72Q200.27 222.31 204.68 220.57Q206.22 219.95 207.96 219.95Q220.17 220.26 225.7 215.13Q224.58 209.91 220.68 205.7Q216.78 201.5 218.73 197.29ZM211.04 151.77L221.19 136.59Q222.42 134.85 224.78 135.56Q233.39 138.64 240.16 144.59Q241.91 146.33 240.78 148.38L230.73 164.28Q229.09 166.43 226.93 164.79Q224.78 163.04 211.76 155.25Q209.61 153.92 211.04 151.77Z" />
		<use id="fatha copy 2" style="display: none" href="#img1" transform="matrix(1,0,0,1,158,48)"/>
		<use id="fathax2 copy 2" style="display: none" href="#img2" transform="matrix(1,0,0,1,136,47)"/>
		<use id="kesra copy 2" style="display: none" href="#img1" transform="matrix(1,0,0,1,172,239)"/>
		<use id="kesrax2 copy 2" style="display: none" href="#img2" transform="matrix(1,0,0,1,148,249)"/>
		<use id="dama copy 2" style="display: none" href="#img3" transform="matrix(1,0,0,1,144,48)"/>
		<use id="damax2 copy" style="display: none" href="#img4" transform="matrix(1,0,0,1,137,33)"/>
		<use id="shada_f copy 2" style="display: none" href="#img5" transform="matrix(1,0,0,1,148,24)"/>
		<use id="shada_f2 copy 2" style="display: none" href="#img6" transform="matrix(1,0,0,1,166,24)"/>
		<use id="shada_k copy 2" style="display: none" href="#img7" transform="matrix(1,0,0,1,140,32)"/>
		<use id="shada_k2 copy 2" style="display: none" href="#img8" transform="matrix(1,0,0,1,135,21)"/>
		<use id="shada_d copy 2" style="display: none" href="#img9" transform="matrix(1,0,0,1,147,24)"/>
		<use id="shada_d2 copy" style="display: none" href="#img10" transform="matrix(1,0,0,1,137,23)"/>
		<use id="sukoon copy 2" style="display: none" href="#img11" transform="matrix(1,0,0,1,156,49)"/>
		<use id="shada copy" style="display: none" href="#img12" transform="matrix(1,0,0,1,142,51)"/>
	</g>
	<g id="noun_end">
		<path id="ـن " fill="#000000" d="M209.97 221.06L214.79 210.7Q217.36 205.27 221.46 208.24Q223.61 209.88 229.05 218.39Q230.38 220.95 235.2 220.95Q240.02 220.95 242.27 225.88Q244.63 230.8 242.17 237.57Q239.71 244.23 237.97 245.15Q236.33 246.08 235.2 246.08L230.58 246.08Q229.25 260.94 219.61 280.73Q202.49 315.8 160.45 316.73Q142.2 317.03 130.3 305.55Q118.51 294.06 119.33 277.15Q120.15 260.12 134.61 233.67Q136.66 229.98 138.61 231.31Q140.56 232.64 138.81 236.03Q129.28 254.59 129.69 262.38Q131.12 287.6 162.91 287.81Q197.67 288.01 214.9 270.28Q217.67 247 209.36 228.75Q207.92 225.57 209.97 221.06ZM160.86 179.43L171.01 164.25Q172.24 162.51 174.6 163.22Q183.21 166.3 189.98 172.25Q191.72 173.99 190.59 176.04L180.55 191.94Q178.91 194.09 176.75 192.45Q174.6 190.71 161.58 182.91Q159.42 181.58 160.86 179.43ZM234.99 246.08Q231 245.77 229.56 240.64L226.89 231.52Q224.95 223.11 232.02 221.26Q233.66 220.85 244.33 221.47Q254.99 221.98 265.45 221.47Q276.01 220.85 277.55 221.26Q282.78 222.59 282.88 228.44Q282.88 229.98 282.47 231.52L279.8 240.64Q278.27 245.67 274.37 246.08Q254.58 247.31 234.99 246.08Z" />
		<use id="fatha copy 3" style="display: none" href="#img1" transform="matrix(1,0,0,1,102,69)"/>
		<use id="fathax2 copy 3" style="display: none" href="#img2" transform="matrix(1,0,0,1,87,68)"/>
		<use id="kesra copy 3" style="display: none" href="#img1" transform="matrix(1,0,0,1,120,297)"/>
		<use id="kesrax2 copy 3" style="display: none" href="#img2" transform="matrix(1,0,0,1,98,311)"/>
		<use id="dama copy 3" style="display: none" href="#img3" transform="matrix(1,0,0,1,106,69)"/>
		<use id="damax2 copy 2" style="display: none" href="#img4" transform="matrix(1,0,0,1,100,54)"/>
		<use id="shada_f copy 3" style="display: none" href="#img5" transform="matrix(1,0,0,1,107,45)"/>
		<use id="shada_f2 copy 3" style="display: none" href="#img6" transform="matrix(1,0,0,1,116,45)"/>
		<use id="shada_k copy 3" style="display: none" href="#img7" transform="matrix(1,0,0,1,86,53)"/>
		<use id="shada_k2 copy 3" style="display: none" href="#img8" transform="matrix(1,0,0,1,102,42)"/>
		<use id="shada_d copy 3" style="display: none" href="#img9" transform="matrix(1,0,0,1,114,45)"/>
		<use id="shada_d2 copy 2" style="display: none" href="#img10" transform="matrix(1,0,0,1,100,44)"/>
		<use id="sukoon copy 3" style="display: none" href="#img11" transform="matrix(1,0,0,1,112,70)"/>
		<use id="shada copy 2" style="display: none" href="#img12" transform="matrix(1,0,0,1,101,72)"/>
	</g>
</svg>