<svg xmlns="http://www.w3.org/2000/svg" viewBox="0 0 400 400" width="400" height="400">
		<defs>
		<g id="img1" transform="translate(0.000000,99.000000) scale(0.100000,-0.100000)" fill="#000000" stroke="none">
			<path d="M347 648 c-50 -48 -89 -131 -94 -203 -6 -74 24 -138 77 -166 51 -28 152 -26 210 4 172 86 82 397 -114 397 -37 0 -51 -6 -79 -32z m149 -133 c8 -11 13 -14 9 -7 -13 26 4 10 24 -22 31 -49 20 -66 -43 -68 -80 -2 -110 3 -128 19 -22 20 -22 35 -3 73 14 27 18 29 70 27 40 -2 59 -8 71 -22z"/>
		</g>
		<g id="img2" transform="translate(0.000000,99.000000) scale(0.100000,-0.100000)" fill="#000000" stroke="none">
			<path d="M347 648 c-50 -48 -89 -131 -94 -203 -6 -74 24 -138 77 -166 51 -28 152 -26 210 4 172 86 82 397 -114 397 -37 0 -51 -6 -79 -32z m149 -133 c8 -11 13 -14 9 -7 -13 26 4 10 24 -22 31 -49 20 -66 -43 -68 -80 -2 -110 3 -128 19 -22 20 -22 35 -3 73 14 27 18 29 70 27 40 -2 59 -8 71 -22z"/>
		</g>
		<g id="img3" transform="translate(0.000000,103.000000) scale(0.100000,-0.100000)" fill="#000000" stroke="none">
			<path d="M420 580 c-124 -77 -235 -152 -248 -166 -39 -45 -20 -134 26 -117 25 9 380 212 428 245 44 29 74 90 74 150 0 53 -40 37 -280 -112z"/>
		</g>
		<g id="img4" transform="translate(0.000000,92.000000) scale(0.100000,-0.100000)" fill="#000000" stroke="none">
			<path d="M742 748 c-61 -40 -160 -102 -219 -138 -92 -56 -111 -72 -130 -110 -13 -24 -23 -57 -23 -72 0 -45 36 -36 172 43 68 39 162 93 209 120 104 60 134 90 150 150 27 102 -10 103 -159 7z"/>
			<path d="M650 457 c-118 -79 -222 -152 -230 -161 -8 -11 -14 -40 -15 -70 0 -44 3 -51 20 -54 12 -1 108 51 230 126 204 125 211 129 238 182 15 29 27 69 27 87 0 60 -35 46 -270 -110z"/>
		</g>		
		<g id="img5" transform="translate(0.000000,123.000000) scale(0.100000,-0.100000)" fill="#000000" stroke="none">
			<path d="M560 881 c-145 -65 -199 -94 -209 -112 -18 -33 -8 -79 18 -79 36 0 413 136 422 153 5 9 11 40 12 69 2 50 1 53 -23 55 -14 1 -113 -38 -220 -86z"/>
			<path d="M764 652 c-16 -10 -30 -42 -38 -84 -8 -45 -29 -68 -62 -68 -26 0 -32 14 -36 85 -3 37 -5 40 -35 43 -30 3 -32 0 -52 -53 -42 -112 -58 -135 -97 -135 -29 0 -35 21 -28 96 7 63 6 64 -21 74 -38 15 -57 -5 -81 -83 -26 -86 -26 -187 2 -224 48 -64 137 -67 204 -7 37 34 40 35 62 20 13 -9 43 -16 69 -16 72 0 119 53 153 170 23 82 24 160 1 176 -21 16 -26 17 -41 6z"/>
		</g>		
		<g id="img6" transform="translate(0.000000,123.000000) scale(0.100000,-0.100000)" fill="#000000" stroke="none">
			<path d="M575 1061 c-72 -30 -369 -163 -385 -173 -40 -25 -34 -98 8 -98 37 0 388 143 410 167 27 29 31 97 6 107 -9 3 -16 6 -17 5 -1 0 -11 -4 -22 -8z"/>
			<path d="M390 814 c-107 -41 -199 -79 -206 -85 -14 -11 -24 -57 -17 -76 9 -22 42 -15 224 46 197 66 216 74 223 98 2 10 7 28 11 39 5 20 -16 55 -33 53 -4 0 -95 -34 -202 -75z"/>
			<path d="M583 652 c-7 -5 -23 -39 -35 -78 -22 -65 -25 -69 -55 -72 -36 -4 -40 5 -45 83 -3 37 -5 40 -33 40 -32 0 -35 -4 -80 -111 -49 -115 -119 -101 -96 19 9 49 1 69 -31 80 -45 16 -92 -90 -93 -210 0 -86 20 -120 82 -142 53 -19 108 -4 151 40 29 30 31 30 53 15 33 -23 104 -21 140 5 41 29 79 109 95 201 14 838 120 -21 132 -20 7 -17 7 -32 -2z"/>
		</g>
		<g id="img7" transform="translate(0.000000,103.000000) scale(0.100000,-0.100000)" fill="#000000" stroke="none">
			<path d="M420 580 c-124 -77 -235 -152 -248 -166 -39 -45 -20 -134 26 -117 25 9 380 212 428 245 44 29 74 90 74 150 0 53 -40 37 -280 -112z"/>
		</g>		
		<g id="img8" transform="translate(0.000000,92.000000) scale(0.100000,-0.100000)" fill="#000000" stroke="none">
			<path d="M742 748 c-61 -40 -160 -102 -219 -138 -92 -56 -111 -72 -130 -110 -13 -24 -23 -57 -23 -72 0 -45 36 -36 172 43 68 39 162 93 209 120 104 60 134 90 150 150 27 102 -10 103 -159 7z"/>
			<path d="M650 457 c-118 -79 -222 -152 -230 -161 -8 -11 -14 -40 -15 -70 0 -44 3 -51 20 -54 12 -1 108 51 230 126 204 125 211 129 238 182 15 29 27 69 27 87 0 60 -35 46 -270 -110z"/>
		</g>	
		<g id="img9" transform="translate(0.000000,107.000000) scale(0.100000,-0.100000)" fill="#000000" stroke="none">
			<path d="M842 845 c-7 -14 -12 -36 -12 -48 0 -12 -9 -37 -20 -54 -37 -61 -100 -32 -85 38 5 22 2 36 -11 50 -38 42 -67 18 -99 -79 -17 -52 -65 -112 -90 -112 -24 0 -30 22 -30 105 0 92 -12 103 -63 60 -62 -52 -89 -223 -47 -292 20 -34 76 -63 121 -63 31 0 80 24 115 56 24 23 27 24 55 9 74 -38 147 -9 199 79 31 53 62 207 49 244 -14 39 -66 44 -82 7z"/>
			<path d="M636 370 c-109 -49 -204 -94 -211 -100 -15 -13 -27 -64 -19 -85 10 -26 57 -17 247 50 102 36 190 65 196 65 20 0 40 46 43 100 3 55 3 55 -27 57 -19 1 -100 -29 -229 -87z"/>
		</g>
		<g id="img10" transform="translate(0.000000,107.000000) scale(0.100000,-0.100000)" fill="#000000" stroke="none">
			<path d="M806 875 c-8 -9 -18 -32 -22 -53 -14 -77 -46 -112 -85 -92 -15 8 -19 22 -19 58 0 54 -6 67 -36 76 -26 8 -47 -15 -64 -69 -39 -123 -102 -174 -130 -105 -10 23 -10 36 0 59 17 43 10 85 -17 89 -63 9 -107 -78 -108 -213 0 -61 4 -86 18 -107 19 -27 81 -58 118 -58 27 0 78 26 111 58 26 24 28 24 62 8 18 -9 51 -16 72 -16 32 0 45 7 84 48 53 55 79 122 87 227 5 59 3 74 -11 88 -21 21 -40 22 -60 2z"/>
			<path d="M705 484 c-66 -30 -156 -71 -200 -91 -95 -42 -102 -47 -110 -94 -9 -51 11 -66 68 -49 89 26 383 134 394 144 7 7 14 41 15 76 3 63 2 65 -22 67 -14 1 -79 -23 -145 -53z"/>
			<path d="M720 284 c-69 -30 -159 -68 -200 -85 -91 -37 -102 -47 -104 -96 -1 -34 2 -38 26 -41 23 -3 190 48 405 122 34 11 46 33 57 95 7 39 -7 61 -38 60 -11 0 -77 -25 -146 -55z"/>
		</g>
		<g id="img11" transform="translate(0.000000,98.000000) scale(0.100000,-0.100000)" fill="#000000" stroke="none">
			<path d="M585 912 c-71 -33 -144 -138 -145 -207 0 -23 12 -41 54 -81 l54 -51 -56 -57 c-31 -31 -100 -87 -154 -124 -106 -71 -124 -97 -93 -132 24 -27 39 -25 104 11 85 48 163 112 232 189 62 68 62 69 90 54 40 -20 45 -18 74 23 35 52 33 89 -5 111 -20 11 -28 22 -24 32 4 8 9 43 12 77 10 132 -50 197 -143 155z"/>
		</g>	
		<g id="img12" transform="translate(0.000000,100.000000) scale(0.100000,-0.100000)" fill="#000000" stroke="none">
			<path d="M415 830 c-46 -18 -145 -159 -145 -205 0 -24 45 -90 81 -118 l32 -25 -32 -40 c-35 -43 -129 -121 -201 -166 -97 -61 -124 -108 -79 -139 45 -32 149 31 300 180 l116 115 27 -17 c41 -27 70 -13 95 44 24 57 20 76 -21 97 -21 11 -28 20 -23 32 12 30 18 119 11 156 -4 19 -18 49 -32 66 -21 25 -33 30 -67 29 -23 0 -51 -4 -62 -9z"/>
			<path d="M794 817 c-46 -27 -76 -58 -109 -113 -53 -88 -44 -140 35 -206 l41 -34 -65 -66 c-36 -36 -98 -87 -138 -114 -101 -65 -128 -92 -128 -126 0 -32 30 -53 62 -42 59 18 155 89 260 192 114 111 119 115 137 98 30 -27 62 -16 88 29 32 56 30 82 -8 103 -26 15 -29 21 -24 47 22 105 13 171 -31 219 -27 29 -82 35 -120 13z"/>
		</g>
		<g id="img13" transform="translate(0.000000,123.000000) scale(0.100000,-0.100000)" fill="#000000" stroke="none">
			<path d="M434 1188 c-103 -95 -116 -196 -35 -259 l32 -25 -68 -66 c-37 -36 -87 -84 -111 -107 -47 -44 -52 -74 -14 -79 36 -5 102 40 186 128 73 76 80 81 103 71 38 -17 52 -13 73 22 28 45 26 81 -5 95 -29 13 -29 14 -10 67 26 72 16 164 -19 187 -6 4 -28 8 -49 8 -30 0 -46 -8 -83 -42z"/>
			<path d="M643 645 c-12 -8 -24 -31 -28 -52 -12 -64 -32 -93 -65 -93 -25 0 -30 4 -36 35 -3 19 -3 42 0 51 8 22 -11 44 -39 44 -28 0 -39 -13 -55 -65 -19 -61 -50 -112 -76 -123 -36 -17 -48 7 -41 83 6 61 5 66 -18 81 -46 30 -78 -17 -110 -164 -34 -158 119 -250 236 -141 29 27 33 28 52 14 12 -8 43 -15 68 -15 60 0 103 34 134 105 25 55 51 195 42 219 -10 26 -42 37 -64 21z"/>
		</g>
		<g id="img14" transform="translate(0.000000,100.000000) scale(0.100000,-0.100000)" fill="#000000" stroke="none">
			<path d="M755 981 c-65 -40 -135 -146 -135 -203 0 -37 23 -81 56 -107 l26 -20 -37 -45 c-20 -25 -68 -70 -106 -101 -75 -60 -95 -99 -65 -121 20 -14 18 -28 -21 -115 -28 -64 -62 -89 -88 -63 -17 17 -18 30 -6 93 7 36 6 46 -10 62 -23 23 -31 24 -57 2 -30 -27 -56 -118 -57 -200 0 -86 20 -120 82 -142 53 -19 108 -4 151 40 29 30 31 30 53 15 32 -22 97 -20 136 4 43 26 82 106 99 202 14 82 8 120 -20 131 -30 12 -45 -5 -68 -76 -21 -66 -26 -72 -52 -75 -36 -4 -46 10 -46 70 0 26 -5 50 -12 54 -7 5 -5 11 8 21 10 7 61 55 111 105 88 87 94 91 118 80 40 -18 54 -15 75 21 27 44 25 77 -6 102 l-27 21 18 70 c21 82 15 135 -20 170 -29 29 -60 30 -100 5z"/>
			<path d="M489 970 c-20 -11 -52 -41 -72 -67 -85 -118 -88 -162 -14 -240 l30 -32 -38 -43 c-21 -24 -70 -70 -109 -103 -70 -60 -92 -99 -66 -115 35 -21 144 51 233 153 l51 58 52 -7 53 -6 20 41 c27 53 27 61 -9 91 l-29 25 20 70 c17 60 18 76 8 113 -12 44 -49 82 -78 82 -9 -1 -32 -10 -52 -20z"/>
		</g>
	</defs>
	<style>
		tspan { white-space:pre }
		.shp0 { fill: #ff0000 } 
	</style>
	<g id="red_guides">
		<path id="Shape 1" class="shp0" d="M0.49 251.5L0.51 246.5L407.51 248.5L407.49 253.5L0.49 251.5Z" />
		<path id="Shape 2" class="shp0" d="M100 -0.01L103 0.01L100 400.01L97 399.99L100 -0.01Z" />
		<path id="Shape 2 copy" class="shp0" d="M200 -0.01L203 0.01L200 400.01L197 399.99L200 -0.01Z" />
		<path id="Shape 2 copy 2" class="shp0" d="M300 -0.01L303 0.01L300 400.01L297 399.99L300 -0.01Z" />
	</g>
	<g id="ra_end" style="display: none">
		<path id="ـر " fill="#000000" d="M188.32 230.75L196.01 212.5Q198.99 205.42 202.47 212.08Q206.06 218.65 207.19 220.7Q208.42 222.65 215.19 222.95Q222.78 223.26 223.19 235.36Q223.08 247.87 215.39 248.08Q212.21 248.18 208.11 248.18Q206.47 271.76 193.76 288.17Q181.14 304.58 168.33 306.52Q155.51 308.47 142.69 302.93Q129.88 297.4 126.8 295.55Q123.83 293.6 124.95 291.35Q125.88 289.3 129.36 290.12Q141.56 293.3 151.82 290.73Q169.56 286.43 183.61 271.66Q197.76 256.89 198.58 250.43Q198.88 247.97 189.86 238.75Q186.48 235.26 188.32 230.75ZM214.88 248.08Q210.88 247.77 209.45 242.64L206.78 233.52Q204.83 225.11 211.91 223.26Q213.55 222.85 224.21 223.47Q234.88 223.98 245.33 223.47Q255.9 222.85 257.43 223.26Q262.66 224.59 262.77 230.44Q262.77 231.98 262.36 233.52L259.69 242.64Q258.15 247.67 254.25 248.08Q234.46 249.31 214.88 248.08Z" />
		<use id="fatha copy" style="display: none" href="#img1" transform="matrix(1,0,0,1,121,113)"/>
		<use id="fathax2 copy" style="display: none" href="#img2" transform="matrix(1,0,0,1,98,118)"/>
		<use id="kesra copy" style="display: none" href="#img1" transform="matrix(1,0,0,1,169,269)"/>
		<use id="kesrax2 copy" style="display: none" href="#img2" transform="matrix(1,0,0,1,142,285)"/>
		<use id="dama copy" style="display: none" href="#img3" transform="matrix(1,0,0,1,107,117)"/>
		<use id="damax2 copy" style="display: none" href="#img4" transform="matrix(1,0,0,1,117,114)"/>
		<use id="shada_f copy" style="display: none" href="#img5" transform="matrix(1,0,0,1,103,102)"/>
		<use id="shada_f2 copy" style="display: none" href="#img6" transform="matrix(1,0,0,1,121,101)"/>
		<use id="shada_k copy" style="display: none" href="#img7" transform="matrix(1,0,0,1,100,104)"/>
		<use id="shada_k2 copy" href="#img8" transform="matrix(1,0,0,1,106,87)"/>
		<use id="shada_d copy" href="#img9" transform="matrix(1,0,0,1,128,92)"/>
		<use id="shada_d2 copy 4" href="#img10" transform="matrix(1,0,0,1,109,96)"/>
		<use id="sukoon copy" href="#img11" transform="matrix(1,0,0,1,134,117)"/>
	</g>
	<g id="ra_byitsself">
		<path id="ـز " fill="#000000" d="M188.32 230.75L196.01 212.5Q198.99 205.42 202.47 212.08Q206.06 218.65 207.19 220.7Q208.42 222.65 215.19 222.95Q222.78 223.26 223.19 235.36Q223.08 247.87 215.39 248.08Q212.21 248.18 208.11 248.18Q206.47 271.76 193.76 288.17Q181.14 304.58 168.33 306.52Q155.51 308.47 142.69 302.93Q129.88 297.4 126.8 295.55Q123.83 293.6 124.95 291.35Q125.88 289.3 129.36 290.12Q141.56 293.3 151.82 290.73Q169.56 286.43 183.61 271.66Q197.76 256.89 198.58 250.43Q198.88 247.97 189.86 238.75Q186.48 235.26 188.32 230.75ZM164.84 163.58L174.99 148.41Q176.22 146.67 178.58 147.38Q187.19 150.46 193.96 156.41Q195.71 158.15 194.58 160.2L184.53 176.09Q182.89 178.25 180.73 176.61Q178.58 174.86 165.56 167.07Q163.41 165.74 164.84 163.58ZM214.88 248.08Q210.88 247.77 209.45 242.64L206.78 233.52Q204.83 225.11 211.91 223.26Q213.55 222.85 224.21 223.47Q234.88 223.98 245.33 223.47Q255.9 222.85 257.43 223.26Q262.66 224.59 262.77 230.44Q262.77 231.98 262.36 233.52L259.69 242.64Q258.15 247.67 254.25 248.08Q234.46 249.31 214.88 248.08Z" />
		<use id="fatha copy 2" style="display: none" href="#img1" transform="matrix(1,0,0,1,123,60)"/>
		<use id="fathax2 copy 2" style="display: none" href="#img2" transform="matrix(1,0,0,1,100,65)"/>
		<use id="kesra copy 2" style="display: none" href="#img1" transform="matrix(1,0,0,1,169,269)"/>
		<use id="kesrax2 copy 2" style="display: none" href="#img2" transform="matrix(1,0,0,1,142,285)"/>
		<use id="dama copy 2" style="display: none" href="#img3" transform="matrix(1,0,0,1,107,51)"/>
		<use id="damax2 copy 2" style="display: none" href="#img4" transform="matrix(1,0,0,1,117,48)"/>
		<use id="shada_f copy 2" style="display: none" href="#img5" transform="matrix(1,0,0,1,103,36)"/>
		<use id="shada_f2 copy 2" style="display: none" href="#img6" transform="matrix(1,0,0,1,121,35)"/>
		<use id="shada_k copy 2" style="display: none" href="#img7" transform="matrix(1,0,0,1,100,38)"/>
		<use id="shada_k2 copy 2" style="display: none" href="#img8" transform="matrix(1,0,0,1,106,26)"/>
		<use id="shada_d copy 2" style="display: none" href="#img9" transform="matrix(1,0,0,1,128,31)"/>
		<use id="shada_d2 copy 5" style="display: none" href="#img10" transform="matrix(1,0,0,1,109,35)"/>
		<use id="sukoon copy 2" href="#img11" transform="matrix(1,0,0,1,134,56)"/>
	</g>
</svg>