<?xml version="1.0" standalone="no"?>
<!DOCTYPE svg PUBLIC "-//W3C//DTD SVG 20010904//EN"
 "http://www.w3.org/TR/2001/REC-SVG-20010904/DTD/svg10.dtd">
<svg version="1.0" xmlns="http://www.w3.org/2000/svg"
 width="130.000000pt" height="92.000000pt" viewBox="0 0 130.000000 92.000000"
 preserveAspectRatio="xMidYMid meet">
<metadata>
Created by potrace 1.16, written by Peter Selinger 2001-2019
</metadata>
<g transform="translate(0.000000,92.000000) scale(0.100000,-0.100000)"
fill="#000000" stroke="none">
<path d="M742 748 c-61 -40 -160 -102 -219 -138 -92 -56 -111 -72 -130 -110
-13 -24 -23 -57 -23 -72 0 -45 36 -36 172 43 68 39 162 93 209 120 104 60 134
90 150 150 27 102 -10 103 -159 7z"/>
<path d="M650 457 c-118 -79 -222 -152 -230 -161 -8 -11 -14 -40 -15 -70 0
-44 3 -51 20 -54 12 -1 108 51 230 126 204 125 211 129 238 182 15 29 27 69
27 87 0 60 -35 46 -270 -110z"/>
</g>
</svg>
