<?xml version="1.0" standalone="no"?>
<!DOCTYPE svg PUBLIC "-//W3C//DTD SVG 20010904//EN"
 "http://www.w3.org/TR/2001/REC-SVG-20010904/DTD/svg10.dtd">
<svg version="1.0" xmlns="http://www.w3.org/2000/svg"
 width="85.000000pt" height="123.000000pt" viewBox="0 0 85.000000 123.000000"
 preserveAspectRatio="none">
<metadata>
Created by potrace 1.16, written by Peter Selinger 2001-2019
</metadata>
<g transform="translate(0.000000,123.000000) scale(0.100000,-0.100000)"
>
<path d="M575 1061 c-72 -30 -369 -163 -385 -173 -40 -25 -34 -98 8 -98 37 0
388 143 410 167 27 29 31 97 6 107 -9 3 -16 6 -17 5 -1 0 -11 -4 -22 -8z"/>
<path d="M390 814 c-107 -41 -199 -79 -206 -85 -14 -11 -24 -57 -17 -76 9 -22
42 -15 224 46 197 66 216 74 223 98 2 10 7 28 11 39 5 20 -16 55 -33 53 -4 0
-95 -34 -202 -75z"/>
<path d="M583 652 c-7 -5 -23 -39 -35 -78 -22 -65 -25 -69 -55 -72 -36 -4 -40
5 -45 83 -3 37 -5 40 -33 40 -32 0 -35 -4 -80 -111 -49 -115 -119 -101 -96 19
9 49 1 69 -31 80 -45 16 -92 -90 -93 -210 0 -86 20 -120 82 -142 53 -19 108
-4 151 40 29 30 31 30 53 15 33 -23 104 -21 140 5 41 29 79 109 95 201 14 83
8 120 -21 132 -20 7 -17 7 -32 -2z"/>
</g>
</svg>
