<?xml version="1.0" standalone="no"?>
<!DOCTYPE svg PUBLIC "-//W3C//DTD SVG 20010904//EN"
 "http://www.w3.org/TR/2001/REC-SVG-20010904/DTD/svg10.dtd">
<svg version="1.0" xmlns="http://www.w3.org/2000/svg"
 width="117.000000pt" height="107.000000pt" viewBox="0 0 117.000000 107.000000"
 preserveAspectRatio="xMidYMid meet">
<metadata>
Created by potrace 1.16, written by Peter Selinger 2001-2019
</metadata>
<g transform="translate(0.000000,107.000000) scale(0.100000,-0.100000)"
fill="#000000" stroke="none">
<path d="M806 875 c-8 -9 -18 -32 -22 -53 -14 -77 -46 -112 -85 -92 -15 8 -19
22 -19 58 0 54 -6 67 -36 76 -26 8 -47 -15 -64 -69 -39 -123 -102 -174 -130
-105 -10 23 -10 36 0 59 17 43 10 85 -17 89 -63 9 -107 -78 -108 -213 0 -61 4
-86 18 -107 19 -27 81 -58 118 -58 27 0 78 26 111 58 26 24 28 24 62 8 18 -9
51 -16 72 -16 32 0 45 7 84 48 53 55 79 122 87 227 5 59 3 74 -11 88 -21 21
-40 22 -60 2z"/>
<path d="M705 484 c-66 -30 -156 -71 -200 -91 -95 -42 -102 -47 -110 -94 -9
-51 11 -66 68 -49 89 26 383 134 394 144 7 7 14 41 15 76 3 63 2 65 -22 67
-14 1 -79 -23 -145 -53z"/>
<path d="M720 284 c-69 -30 -159 -68 -200 -85 -91 -37 -102 -47 -104 -96 -1
-34 2 -38 26 -41 23 -3 190 48 405 122 34 11 46 33 57 95 7 39 -7 61 -38 60
-11 0 -77 -25 -146 -55z"/>
</g>
</svg>
