<?xml version="1.0" standalone="no"?>
<!DOCTYPE svg PUBLIC "-//W3C//DTD SVG 20010904//EN"
 "http://www.w3.org/TR/2001/REC-SVG-20010904/DTD/svg10.dtd">
<svg version="1.0" xmlns="http://www.w3.org/2000/svg"
 width="100.000000pt" height="100.000000pt" viewBox="0 0 100.000000 100.000000"
 preserveAspectRatio="xMidYMid meet">
<metadata>
Created by potrace 1.16, written by Peter Selinger 2001-2019
</metadata>
<g transform="translate(0.000000,100.000000) scale(0.100000,-0.100000)"
fill="#000000" stroke="none">
<path d="M415 830 c-46 -18 -145 -159 -145 -205 0 -24 45 -90 81 -118 l32 -25
-32 -40 c-35 -43 -129 -121 -201 -166 -97 -61 -124 -108 -79 -139 45 -32 149
31 300 180 l116 115 27 -17 c41 -27 70 -13 95 44 24 57 20 76 -21 97 -21 11
-28 20 -23 32 12 30 18 119 11 156 -4 19 -18 49 -32 66 -21 25 -33 30 -67 29
-23 0 -51 -4 -62 -9z"/>
<path d="M794 817 c-46 -27 -76 -58 -109 -113 -53 -88 -44 -140 35 -206 l41
-34 -65 -66 c-36 -36 -98 -87 -138 -114 -101 -65 -128 -92 -128 -126 0 -32 30
-53 62 -42 59 18 155 89 260 192 114 111 119 115 137 98 30 -27 62 -16 88 29
32 56 30 82 -8 103 -26 15 -29 21 -24 47 22 105 13 171 -31 219 -27 29 -82 35
-120 13z"/>
</g>
</svg>
