<?xml version="1.0" standalone="no"?>
<!DOCTYPE svg PUBLIC "-//W3C//DTD SVG 20010904//EN"
 "http://www.w3.org/TR/2001/REC-SVG-20010904/DTD/svg10.dtd">
<svg version="1.0" xmlns="http://www.w3.org/2000/svg"
 width="86.000000pt" height="123.000000pt" viewBox="0 0 86.000000 123.000000"
 preserveAspectRatio="xMidYMid meet">
<metadata>
Created by potrace 1.16, written by Peter Selinger 2001-2019
</metadata>
<g transform="translate(0.000000,123.000000) scale(0.100000,-0.100000)"
fill="#000000" stroke="none">
<path d="M434 1188 c-103 -95 -116 -196 -35 -259 l32 -25 -68 -66 c-37 -36
-87 -84 -111 -107 -47 -44 -52 -74 -14 -79 36 -5 102 40 186 128 73 76 80 81
103 71 38 -17 52 -13 73 22 28 45 26 81 -5 95 -29 13 -29 14 -10 67 26 72 16
164 -19 187 -6 4 -28 8 -49 8 -30 0 -46 -8 -83 -42z"/>
<path d="M643 645 c-12 -8 -24 -31 -28 -52 -12 -64 -32 -93 -65 -93 -25 0 -30
4 -36 35 -3 19 -3 42 0 51 8 22 -11 44 -39 44 -28 0 -39 -13 -55 -65 -19 -61
-50 -112 -76 -123 -36 -17 -48 7 -41 83 6 61 5 66 -18 81 -46 30 -78 -17 -110
-164 -34 -158 119 -250 236 -141 29 27 33 28 52 14 12 -8 43 -15 68 -15 60 0
103 34 134 105 25 55 51 195 42 219 -10 26 -42 37 -64 21z"/>
</g>
</svg>
