<?xml version="1.0" standalone="no"?>
<!DOCTYPE svg PUBLIC "-//W3C//DTD SVG 20010904//EN"
 "http://www.w3.org/TR/2001/REC-SVG-20010904/DTD/svg10.dtd">
<svg version="1.0" xmlns="http://www.w3.org/2000/svg"
 width="89.000000pt" height="99.000000pt" viewBox="0 0 89.000000 99.000000"
 preserveAspectRatio="xMidYMid meet">
<metadata>
Created by potrace 1.16, written by Peter Selinger 2001-2019
</metadata>
<g transform="translate(0.000000,99.000000) scale(0.100000,-0.100000)"
fill="#000000" stroke="none">
<path d="M347 648 c-50 -48 -89 -131 -94 -203 -6 -74 24 -138 77 -166 51 -28
152 -26 210 4 172 86 82 397 -114 397 -37 0 -51 -6 -79 -32z m149 -133 c8 -11
13 -14 9 -7 -13 26 4 10 24 -22 31 -49 20 -66 -43 -68 -80 -2 -110 3 -128 19
-22 20 -22 35 -3 73 14 27 18 29 70 27 40 -2 59 -8 71 -22z"/>
</g>
</svg>
