<?xml version="1.0" standalone="no"?>
<!DOCTYPE svg PUBLIC "-//W3C//DTD SVG 20010904//EN"
 "http://www.w3.org/TR/2001/REC-SVG-20010904/DTD/svg10.dtd">
<svg version="1.0" xmlns="http://www.w3.org/2000/svg"
 width="498.000000pt" height="700.000000pt" viewBox="0 0 498.000000 700.000000"
 preserveAspectRatio="xMidYMin">
<metadata>
Created by potrace 1.16, written by Peter Selinger 2001-2019
</metadata>
<g transform="translate(0.000000,700.000000) scale(0.100000,-0.100000)"
fill="#000000" stroke="none">
<path d="M2156 6688 c-178 -1327 -439 -2384 -751 -3036 -182 -380 -498 -891
-872 -1412 l-141 -196 -21 -914 c-12 -503 -21 -961 -21 -1018 l0 -103 77 52
c295 197 562 481 740 784 203 348 418 962 708 2020 108 395 345 1340 462 1847
43 185 81 334 84 330 4 -4 28 -88 54 -187 121 -462 281 -1012 423 -1455 483
-1500 986 -2517 1518 -3069 133 -138 281 -261 288 -239 5 16 207 2065 206
2096 0 16 -40 68 -118 155 -462 517 -809 972 -1061 1392 -78 129 -236 438
-321 625 -254 562 -529 1384 -787 2355 l-48 180 -195 3 -195 2 -29 -212z"/>
</g>
</svg>
