<?xml version="1.0" standalone="no"?>
<!DOCTYPE svg PUBLIC "-//W3C//DTD SVG 20010904//EN"
 "http://www.w3.org/TR/2001/REC-SVG-20010904/DTD/svg10.dtd">
<svg version="1.0" xmlns="http://www.w3.org/2000/svg"
 width="448.000000pt" height="606.000000pt" viewBox="0 0 448.000000 606.000000"
 preserveAspectRatio="xMidYMid meet">
<metadata>
Created by potrace 1.16, written by Peter Selinger 2001-2019
</metadata>
<g transform="translate(0.000000,606.000000) scale(0.100000,-0.100000)"
fill="#000000" stroke="none">
<path d="M1960 5525 c-52 -14 -137 -46 -189 -72 -465 -230 -927 -905 -1273
-1858 -201 -553 -312 -1033 -325 -1401 -6 -191 1 -262 39 -384 56 -176 188
-351 346 -459 181 -122 443 -217 727 -263 123 -19 179 -22 460 -22 363 -1 491
11 750 70 188 43 306 81 465 151 578 255 1023 759 1215 1373 104 332 145 802
95 1065 -55 284 -210 586 -439 855 -304 356 -650 640 -973 799 -236 115 -409
160 -643 167 -147 4 -168 2 -255 -21z m-115 -1149 c128 -32 265 -79 435 -149
738 -302 1340 -742 1517 -1108 52 -107 67 -175 61 -282 -4 -71 -10 -96 -37
-152 -123 -249 -533 -449 -1074 -526 -276 -39 -808 -38 -1057 2 -365 58 -596
160 -759 335 -150 161 -208 357 -189 645 16 253 92 519 225 783 122 242 278
399 463 464 58 21 78 22 190 18 87 -3 155 -12 225 -30z"/>
</g>
</svg>
