<?xml version="1.0" standalone="no"?>
<!DOCTYPE svg PUBLIC "-//W3C//DTD SVG 20010904//EN"
 "http://www.w3.org/TR/2001/REC-SVG-20010904/DTD/svg10.dtd">
<svg version="1.0" xmlns="http://www.w3.org/2000/svg"
 width="518.000000pt" height="704.000000pt" viewBox="0 0 518.000000 704.000000"
 preserveAspectRatio="xMidYMid meet">
<metadata>
Created by potrace 1.16, written by Peter Selinger 2001-2019
</metadata>
<g transform="translate(0.000000,704.000000) scale(0.100000,-0.100000)"
fill="#000000" stroke="none">
<path d="M4590 6967 c-308 -212 -492 -402 -643 -662 -116 -201 -264 -544 -387
-896 -207 -591 -508 -1716 -822 -3071 -40 -175 -75 -318 -78 -318 -3 0 -31
100 -64 223 -422 1594 -861 2828 -1274 3578 -208 378 -400 650 -628 887 -107
113 -311 289 -321 278 -3 -2 -53 -481 -111 -1063 l-107 -1060 104 -114 c145
-160 437 -500 557 -649 439 -547 745 -1084 1036 -1820 193 -485 429 -1243 623
-1992 l28 -108 196 0 196 0 38 273 c77 548 195 1205 287 1597 174 741 420
1381 728 1894 101 168 339 522 549 817 l190 266 22 924 c26 1132 26 1089 4
1089 -10 -1 -65 -33 -123 -73z"/>
</g>
</svg>
