<?xml version="1.0" standalone="no"?>
<!DOCTYPE svg PUBLIC "-//W3C//DTD SVG 20010904//EN"
 "http://www.w3.org/TR/2001/REC-SVG-20010904/DTD/svg10.dtd">
<svg version="1.0" xmlns="http://www.w3.org/2000/svg"
 width="468.000000pt" height="696.000000pt" viewBox="0 0 468.000000 696.000000"
 preserveAspectRatio="xMidYMid meet">
<metadata>
Created by potrace 1.16, written by Peter Selinger 2001-2019
</metadata>
<g transform="translate(0.000000,696.000000) scale(0.100000,-0.100000)"
fill="#000000" stroke="none">
<path d="M433 6787 l-93 -10 0 -151 c0 -82 -7 -315 -16 -516 -26 -584 -10
-780 74 -947 35 -68 107 -143 180 -185 94 -55 286 -104 522 -134 172 -21 709
-30 877 -15 127 12 481 69 726 116 70 14 132 25 138 25 8 0 10 -17 5 -57 -60
-504 -119 -1072 -132 -1264 -22 -334 -15 -938 15 -1221 104 -1002 401 -1634
975 -2075 163 -126 269 -195 276 -181 4 7 56 306 115 663 l109 650 -155 195
c-213 268 -276 354 -364 502 -281 473 -422 991 -486 1783 -18 225 -20 313 -16
655 5 397 12 495 57 840 19 142 120 793 139 897 8 43 8 44 -15 39 -12 -3 -135
-31 -271 -61 -576 -126 -959 -175 -1368 -175 -367 0 -576 35 -771 130 -55 27
-123 69 -150 94 -65 58 -139 168 -206 306 -29 60 -57 109 -63 108 -5 -1 -52
-5 -102 -11z"/>
</g>
</svg>
