<?xml version="1.0" standalone="no"?>
<!DOCTYPE svg PUBLIC "-//W3C//DTD SVG 20010904//EN"
 "http://www.w3.org/TR/2001/REC-SVG-20010904/DTD/svg10.dtd">
<svg version="1.0" xmlns="http://www.w3.org/2000/svg"
 width="458.000000pt" height="656.000000pt" viewBox="0 0 458.000000 656.000000"
 preserveAspectRatio="xMidYMid meet">
<metadata>
Created by potrace 1.16, written by Peter Selinger 2001-2019
</metadata>
<g transform="translate(0.000000,656.000000) scale(0.100000,-0.100000)"
fill="#000000" stroke="none">
<path d="M2735 6281 c-76 -34 -93 -62 -290 -477 -167 -354 -195 -406 -246
-464 -111 -126 -281 -201 -494 -218 -222 -19 -410 16 -511 95 -59 46 -171 225
-418 669 -61 111 -105 158 -164 173 -122 33 -227 -93 -292 -351 -58 -233 -109
-554 -110 -691 0 -92 21 -151 112 -319 32 -60 85 -159 119 -220 428 -790 806
-1640 982 -2213 117 -378 151 -554 232 -1220 50 -417 59 -468 87 -544 84 -221
208 -307 300 -208 116 124 169 497 169 1182 0 421 -17 677 -72 1045 -48 324
-106 567 -179 750 -46 116 -180 484 -180 496 0 1 21 4 48 6 63 7 139 37 247
99 274 156 472 323 532 449 l30 64 23 -44 c32 -63 124 -155 189 -190 154 -84
406 -121 575 -85 170 36 326 162 472 381 166 250 318 646 379 995 33 190 51
474 36 576 -25 168 -97 253 -216 253 -104 0 -164 -67 -210 -236 -77 -283 -157
-477 -219 -532 -53 -47 -102 -57 -266 -57 -132 0 -149 2 -188 23 -53 28 -97
89 -119 161 -13 45 -17 101 -17 281 -1 211 -2 228 -23 265 -29 55 -70 91 -122
110 -59 20 -146 19 -196 -4z"/>
</g>
</svg>
