<?xml version="1.0" encoding="UTF-8" standalone="no"?>
<svg
   xmlns:dc="http://purl.org/dc/elements/1.1/"
   xmlns:cc="http://creativecommons.org/ns#"
   xmlns:rdf="http://www.w3.org/1999/02/22-rdf-syntax-ns#"
   xmlns:svg="http://www.w3.org/2000/svg"
   xmlns="http://www.w3.org/2000/svg"
   id="svg8"
   preserveAspectRatio="xMidYMid meet"
   viewBox="0 0 408.000000 690.000000"
   height="690.000000pt"
   width="408.000000pt"
   version="1.0">
  <defs
     id="defs12" />
  <metadata
     id="metadata2">
Created by potrace 1.16, written by Peter Selinger 2001-2019
<rdf:RDF>
  <cc:Work
     rdf:about="">
    <dc:format>image/svg+xml</dc:format>
    <dc:type
       rdf:resource="http://purl.org/dc/dcmitype/StillImage" />
  </cc:Work>
</rdf:RDF>
</metadata>
  <g
     id="g6"
     stroke="none"
     fill="#000000"
     transform="translate(0.000000,690.000000) scale(0.100000,-0.100000)">
    <path
       id="path4"
       d="M797 6682 c-8 -14 -517 -1561 -517 -1571 0 -6 75 -111 168 -233 664 -882 1089 -1595 1315 -2208 160 -435 293 -965 406 -1620 40 -232 108 -698 132 -897 l12 -103 112 0 112 0 51 253 c113 552 160 937 169 1382 7 391 -13 660 -78 1055 -47 285 -147 728 -222 985 l-23 81 80 18 c216 48 506 166 664 271 93 61 219 179 276 259 158 221 251 566 286 1061 15 210 12 779 -5 1010 -8 110 -15 204 -15 209 0 8 -143 2 -221 -10 l-36 -6 -12 -107 c-50 -439 -276 -707 -676 -802 -90 -21 -123 -24 -320 -23 -187 0 -234 3 -315 21 -277 63 -495 184 -786 438 -54 48 -201 190 -326 316 -125 126 -229 225 -231 221z" />
  </g>
</svg>
