<?xml version="1.0" standalone="no"?>
<!DOCTYPE svg PUBLIC "-//W3C//DTD SVG 20010904//EN"
 "http://www.w3.org/TR/2001/REC-SVG-20010904/DTD/svg10.dtd">
<svg version="1.0" xmlns="http://www.w3.org/2000/svg"
 width="258.000000pt" height="338.000000pt" viewBox="0 0 258.000000 338.000000"
 preserveAspectRatio="xMidYMid meet">
<metadata>
Created by potrace 1.16, written by Peter Selinger 2001-2019
</metadata>
<g transform="translate(0.000000,338.000000) scale(0.100000,-0.100000)"
fill="#000000" stroke="none">
<path d="M851 3248 c-22 -58 -167 -517 -235 -743 -132 -443 -337 -1208 -326
-1218 311 -260 643 -506 970 -718 218 -142 627 -385 634 -378 2 2 52 207 110
454 59 248 160 657 223 910 64 253 116 472 117 486 1 23 -49 66 -404 350 -461
367 -649 520 -903 731 -168 141 -178 148 -186 126z"/>
</g>
</svg>
