<?xml version="1.0" standalone="no"?>
<!DOCTYPE svg PUBLIC "-//W3C//DTD SVG 20010904//EN"
 "http://www.w3.org/TR/2001/REC-SVG-20010904/DTD/svg10.dtd">
<svg version="1.0" xmlns="http://www.w3.org/2000/svg"
 width="220.000000pt" height="400.000000pt" viewBox="0 0 220.000000 400.000000"
 preserveAspectRatio="xMidYMid meet">
<metadata>
Created by potrace 1.16, written by Peter Selinger 2001-2019
</metadata>
<g transform="translate(0.000000,400.000000) scale(0.100000,-0.100000)"
fill="#000000" stroke="none">
<path d="M1246 2504 c-32 -47 -55 -92 -52 -100 8 -22 159 -114 181 -112 24 3
125 152 125 184 0 33 -123 114 -173 114 -19 0 -36 -18 -81 -86z"/>
<path d="M1686 2135 c-98 -40 -221 -130 -350 -256 l-123 -119 -33 11 c-65 23
-121 62 -166 115 -38 45 -52 54 -79 54 -27 0 -39 -9 -77 -59 -52 -66 -97 -103
-147 -120 -23 -7 -146 -11 -372 -11 l-339 0 0 -131 0 -130 369 3 370 3 34 33
c19 18 45 56 58 85 13 29 24 54 26 56 1 2 30 -22 64 -54 34 -31 77 -64 96 -73
20 -10 32 -21 28 -29 -2 -8 -12 -41 -21 -75 -17 -69 -10 -102 27 -113 30 -10
43 8 70 94 l22 73 36 -6 c20 -4 74 -11 121 -17 214 -26 500 53 598 165 77 88
152 276 138 348 -10 55 -45 97 -115 139 -80 48 -143 52 -235 14z m65 -275 c35
-11 80 -29 99 -41 l35 -22 -25 -9 c-66 -25 -500 -71 -517 -55 -8 9 126 93 184
116 91 36 139 38 224 11z"/>
</g>
</svg>
